<svg width="25" height="25" viewBox="0 0 25 25" fill="none" xmlns="http://www.w3.org/2000/svg">
<g clip-path="url(#clip0_2305_2072)">
<path d="M19.2506 16.8707C19.318 17.0328 19.3473 17.2084 19.3362 17.3838C19.3252 17.5591 19.2742 17.7296 19.1871 17.8819C19.1001 18.0342 18.9793 18.1642 18.8342 18.2618C18.6891 18.3594 18.5237 18.422 18.3507 18.4447C18.383 18.7146 18.3374 18.9881 18.2193 19.2325C18.0729 19.5337 17.8263 19.7738 17.5224 19.9109C17.2185 20.0481 16.8765 20.0736 16.5559 19.9832C16.4237 20.1456 16.2496 20.2684 16.0528 20.338C15.856 20.4076 15.644 20.4213 15.4399 20.3777C15.2359 20.3341 15.0476 20.2348 14.8958 20.0908C14.744 19.9467 14.6345 19.7633 14.5791 19.5608C14.4301 19.6234 14.2696 19.6534 14.1082 19.6486C13.9467 19.6439 13.7882 19.6045 13.6431 19.5332C13.498 19.4619 13.3696 19.3602 13.2666 19.235C13.1635 19.1098 13.0882 18.9639 13.0455 18.807C12.8965 18.8697 12.736 18.8996 12.5746 18.8949C12.4131 18.8901 12.2546 18.8507 12.1095 18.7794C11.9644 18.7081 11.836 18.6064 11.733 18.4812C11.6299 18.356 11.5546 18.2101 11.5119 18.0532C11.3629 18.1159 11.2024 18.1458 11.0409 18.1411C10.8795 18.1363 10.721 18.097 10.5759 18.0257C10.4308 17.9543 10.3024 17.8527 10.1994 17.7274C10.0963 17.6022 10.021 17.4563 9.97832 17.2995C9.82931 17.3621 9.66875 17.3921 9.50735 17.3873C9.34594 17.3826 9.1874 17.3432 9.04228 17.2719C8.89716 17.2006 8.76881 17.0989 8.66577 16.9737C8.56273 16.8485 8.48737 16.7026 8.44472 16.5457C8.29571 16.6084 8.13515 16.6383 7.97374 16.6335C7.81234 16.6288 7.6538 16.5894 7.50868 16.5181C7.36356 16.4468 7.23521 16.3451 7.13217 16.2199C7.02912 16.0947 6.95377 15.9488 6.91111 15.7919C6.7621 15.8546 6.60155 15.8845 6.44014 15.8798C6.27874 15.875 6.12019 15.8357 5.97508 15.7643C5.82996 15.693 5.7016 15.5914 5.59856 15.4661C5.49552 15.3409 5.42016 15.195 5.37751 15.0382C5.18493 15.1189 4.97402 15.1447 4.76784 15.1128C4.56167 15.081 4.36816 14.9926 4.20847 14.8574C4.04879 14.7223 3.92908 14.5455 3.86243 14.3464C3.79578 14.1473 3.78476 13.9336 3.83057 13.7286C3.56246 13.5297 3.37202 13.2425 3.29235 12.9168C3.21269 12.5912 3.24882 12.2477 3.39449 11.9461C3.51314 11.7019 3.69913 11.4974 3.93019 11.357C3.84151 11.2057 3.78869 11.0358 3.77581 10.8606C3.76294 10.6853 3.79037 10.5094 3.85598 10.3466C3.92159 10.1838 4.02359 10.0384 4.15408 9.92169C4.28456 9.80503 4.44 9.72025 4.60831 9.67395C4.5461 9.52387 4.51636 9.36215 4.52108 9.19959C4.52581 9.03702 4.56488 8.87733 4.63569 8.73117C4.70651 8.58501 4.80744 8.45573 4.93176 8.35195C5.05609 8.24816 5.20095 8.17226 5.35668 8.1293C5.28936 7.96718 5.26006 7.79161 5.27107 7.61623C5.28208 7.44085 5.33311 7.27039 5.42017 7.1181C5.50724 6.96582 5.62801 6.83581 5.77309 6.73819C5.91817 6.64057 6.08365 6.57797 6.25666 6.55525C6.22435 6.2854 6.26996 6.0119 6.388 5.76748C6.53442 5.46624 6.781 5.2262 7.08489 5.08906C7.38878 4.95192 7.73077 4.92636 8.05142 5.01683C8.18365 4.85433 8.35768 4.73159 8.5545 4.662C8.75132 4.59241 8.96334 4.57867 9.16739 4.62227C9.37144 4.66587 9.55967 4.76514 9.71148 4.90922C9.86329 5.0533 9.97286 5.23664 10.0282 5.43921C10.1772 5.37655 10.3378 5.3466 10.4992 5.35136C10.6606 5.35612 10.8191 5.39547 10.9642 5.46679C11.1093 5.53812 11.2377 5.63978 11.3407 5.765C11.4438 5.89022 11.5191 6.03612 11.5618 6.19298C11.7108 6.13032 11.8714 6.10037 12.0328 6.10513C12.1942 6.10988 12.3527 6.14924 12.4978 6.22056C12.6429 6.29189 12.7713 6.39355 12.8743 6.51877C12.9774 6.64398 13.0527 6.78989 13.0954 6.94675C13.2444 6.88409 13.405 6.85414 13.5664 6.8589C13.7278 6.86365 13.8863 6.903 14.0314 6.97433C14.1765 7.04566 14.3049 7.14731 14.4079 7.27253C14.511 7.39775 14.5863 7.54365 14.629 7.70051C14.778 7.63786 14.9386 7.60791 15.1 7.61266C15.2614 7.61742 15.4199 7.65677 15.565 7.7281C15.7101 7.79942 15.8385 7.90108 15.9415 8.0263C16.0446 8.15152 16.1199 8.29742 16.1626 8.45428C16.3116 8.39163 16.4722 8.36168 16.6336 8.36643C16.795 8.37119 16.9535 8.41054 17.0986 8.48187C17.2437 8.55319 17.3721 8.65485 17.4751 8.78007C17.5782 8.90529 17.6535 9.05119 17.6962 9.20805C17.8452 9.14539 18.0058 9.11545 18.1672 9.1202C18.3286 9.12496 18.4871 9.16431 18.6322 9.23564C18.7774 9.30696 18.9057 9.40862 19.0087 9.53384C19.1118 9.65906 19.1871 9.80496 19.2298 9.96182C19.4224 9.8811 19.6333 9.85527 19.8395 9.88714C20.0456 9.91902 20.2392 10.0074 20.3988 10.1425C20.5585 10.2777 20.6782 10.4545 20.7449 10.6536C20.8115 10.8527 20.8226 11.0664 20.7767 11.2713C21.0449 11.4703 21.2353 11.7575 21.315 12.0832C21.3946 12.4088 21.3585 12.7523 21.2128 13.0539C21.0942 13.298 20.9082 13.5025 20.6771 13.6429C20.7658 13.7943 20.8186 13.9642 20.8315 14.1394C20.8444 14.3147 20.8169 14.4906 20.7513 14.6534C20.6857 14.8162 20.5837 14.9616 20.4532 15.0783C20.3228 15.195 20.1673 15.2797 19.999 15.326C20.0612 15.4761 20.0909 15.6378 20.0862 15.8004C20.0815 15.963 20.0424 16.1226 19.9716 16.2688C19.9008 16.415 19.7999 16.5443 19.6755 16.648C19.5512 16.7518 19.4064 16.8277 19.2506 16.8707ZM18.6998 16.2812C18.8354 16.3478 18.9917 16.3575 19.1343 16.3081C19.277 16.2586 19.3943 16.1541 19.4605 16.0176C19.5266 15.881 19.5362 15.7236 19.4871 15.5799C19.438 15.4362 19.3343 15.3181 19.1987 15.2514C19.1309 15.2181 19.0791 15.159 19.0545 15.0872C19.03 15.0154 19.0348 14.9366 19.0679 14.8684C19.1009 14.8001 19.1596 14.7478 19.2309 14.7231C19.3022 14.6984 19.3804 14.7032 19.4482 14.7366C19.5754 14.7994 19.7213 14.8121 19.8573 14.7721C19.9932 14.7321 20.1095 14.6423 20.183 14.5204C20.2566 14.3985 20.2823 14.2533 20.2549 14.1132C20.2276 13.9732 20.1492 13.8486 20.0353 13.7638C19.992 13.7315 19.9587 13.6874 19.9393 13.6368C19.9199 13.5861 19.9152 13.531 19.9258 13.4777C19.9363 13.4245 19.9616 13.3753 19.9988 13.3361C20.036 13.2968 20.0836 13.2689 20.1359 13.2558C20.3066 13.2151 20.4606 13.1221 20.5767 12.9897C20.6928 12.8573 20.7653 12.6919 20.7843 12.5162C20.8033 12.3406 20.7678 12.1633 20.6827 12.0088C20.5976 11.8543 20.467 11.7302 20.309 11.6534C20.2412 11.6201 20.1893 11.5611 20.1648 11.4892C20.1403 11.4174 20.1451 11.3387 20.1781 11.2704C20.2443 11.1338 20.2539 10.9764 20.2048 10.8327C20.1557 10.689 20.052 10.5709 19.9164 10.5042C19.7808 10.4376 19.6245 10.4279 19.4819 10.4774C19.3392 10.5268 19.2219 10.6313 19.1557 10.7679C19.1227 10.8361 19.064 10.8884 18.9927 10.9131C18.9214 10.9378 18.8432 10.933 18.7754 10.8997C18.7076 10.8664 18.6557 10.8073 18.6312 10.7354C18.6067 10.6636 18.6115 10.5849 18.6445 10.5166C18.7107 10.3801 18.7203 10.2226 18.6712 10.0789C18.6221 9.93526 18.5184 9.81711 18.3828 9.75047C18.2472 9.68383 18.0909 9.67417 17.9483 9.72361C17.8056 9.77305 17.6883 9.87754 17.6221 10.0141C17.5891 10.0824 17.5304 10.1346 17.4591 10.1593C17.3878 10.1841 17.3096 10.1792 17.2418 10.1459C17.174 10.1126 17.1221 10.0535 17.0976 9.98167C17.0731 9.90984 17.0779 9.83112 17.1109 9.76284C17.1771 9.62629 17.1867 9.46885 17.1376 9.32517C17.0885 9.18149 16.9848 9.06334 16.8492 8.9967C16.7136 8.93006 16.5573 8.9204 16.4147 8.96984C16.272 9.01928 16.1547 9.12377 16.0885 9.26033C16.0555 9.32861 15.9968 9.38085 15.9255 9.40557C15.8541 9.43029 15.776 9.42546 15.7082 9.39214C15.6404 9.35882 15.5885 9.29975 15.564 9.22791C15.5395 9.15607 15.5443 9.07735 15.5773 9.00907C15.6435 8.87252 15.6531 8.71508 15.604 8.5714C15.5549 8.42772 15.4512 8.30957 15.3156 8.24293C15.18 8.1763 15.0237 8.16663 14.8811 8.21607C14.7384 8.26551 14.6211 8.37 14.5549 8.50656C14.5219 8.57484 14.4632 8.62708 14.3919 8.6518C14.3205 8.67652 14.2424 8.67169 14.1746 8.63837C14.1068 8.60505 14.0549 8.54598 14.0304 8.47414C14.0059 8.4023 14.0107 8.32358 14.0437 8.2553C14.1099 8.11875 14.1195 7.96131 14.0704 7.81763C14.0213 7.67396 13.9176 7.5558 13.782 7.48916C13.6464 7.42253 13.4901 7.41287 13.3475 7.4623C13.2048 7.51174 13.0875 7.61624 13.0213 7.75279C12.9883 7.82107 12.9296 7.87331 12.8583 7.89803C12.7869 7.92275 12.7088 7.91792 12.641 7.8846C12.5732 7.85129 12.5213 7.79221 12.4968 7.72037C12.4723 7.64853 12.477 7.56981 12.5101 7.50153C12.5763 7.36498 12.5859 7.20755 12.5368 7.06387C12.4877 6.92019 12.384 6.80203 12.2484 6.7354C12.1128 6.66876 11.9565 6.6591 11.8139 6.70854C11.6712 6.75798 11.5539 6.86247 11.4877 6.99902C11.4546 7.0673 11.396 7.11955 11.3247 7.14427C11.2533 7.16899 11.1752 7.16415 11.1074 7.13084C11.0396 7.09752 10.9877 7.03844 10.9632 6.9666C10.9387 6.89476 10.9434 6.81604 10.9765 6.74777C11.0427 6.61121 11.0523 6.45378 11.0032 6.3101C10.9541 6.16642 10.8504 6.04826 10.7148 5.98163C10.5792 5.91499 10.4229 5.90533 10.2802 5.95477C10.1376 6.00421 10.0203 6.1087 9.95413 6.24525C9.92105 6.31353 9.86239 6.36578 9.79107 6.3905C9.71974 6.41522 9.64159 6.41039 9.5738 6.37707C9.50601 6.34375 9.45413 6.28467 9.42959 6.21283C9.40505 6.14099 9.40985 6.06228 9.44293 5.994C9.50909 5.85744 9.51868 5.70001 9.46959 5.55633C9.42051 5.41265 9.31676 5.2945 9.18118 5.22786C9.04561 5.16122 8.8893 5.15156 8.74665 5.201C8.60399 5.25044 8.48668 5.35493 8.42052 5.49148C8.38744 5.55976 8.32879 5.61201 8.25746 5.63673C8.18614 5.66145 8.10798 5.65662 8.04019 5.6233C7.88291 5.54505 7.70543 5.5178 7.53214 5.54529C7.35885 5.57278 7.19828 5.65366 7.07249 5.77681C6.9467 5.89997 6.86188 6.05934 6.82968 6.23303C6.79749 6.40671 6.8195 6.58617 6.8927 6.74674C6.9146 6.79635 6.92206 6.85121 6.91419 6.90492C6.90633 6.95863 6.88348 7.00899 6.84829 7.05012C6.81311 7.09125 6.76704 7.12146 6.71547 7.13724C6.66389 7.15301 6.60892 7.1537 6.55697 7.13922C6.42051 7.1009 6.27475 7.11539 6.14836 7.17983C6.02196 7.24427 5.92407 7.354 5.87393 7.48745C5.8238 7.62091 5.82504 7.76842 5.87741 7.901C5.92978 8.03357 6.02951 8.14162 6.15697 8.2039C6.22475 8.23721 6.27663 8.29629 6.30117 8.36813C6.32571 8.43997 6.32092 8.51869 6.28784 8.58696C6.25476 8.65524 6.1961 8.70749 6.12477 8.73221C6.05345 8.75693 5.9753 8.7521 5.90751 8.71878C5.77193 8.65214 5.61562 8.64248 5.47297 8.69192C5.33032 8.74136 5.21301 8.84585 5.14685 8.9824C5.08068 9.11896 5.07109 9.27639 5.12018 9.42007C5.16926 9.56375 5.27301 9.6819 5.40859 9.74854C5.47638 9.78186 5.52825 9.84094 5.55279 9.91278C5.57733 9.98462 5.57254 10.0633 5.53946 10.1316C5.50638 10.1999 5.44772 10.2521 5.3764 10.2769C5.30507 10.3016 5.22692 10.2967 5.15913 10.2634C5.03196 10.2005 4.88604 10.1879 4.75005 10.2279C4.61406 10.2679 4.49785 10.3576 4.42426 10.4796C4.35067 10.6015 4.32503 10.7467 4.35237 10.8867C4.37971 11.0267 4.45806 11.1514 4.57202 11.2361C4.61532 11.2685 4.64861 11.3125 4.668 11.3632C4.68739 11.4139 4.69209 11.469 4.68155 11.5223C4.67101 11.5755 4.64566 11.6246 4.60846 11.6639C4.57127 11.7032 4.52375 11.7311 4.47145 11.7442C4.30074 11.7849 4.14674 11.8778 4.03062 12.0103C3.9145 12.1427 3.84196 12.3081 3.82298 12.4838C3.804 12.6594 3.83951 12.8367 3.92463 12.9912C4.00974 13.1457 4.14028 13.2698 4.2983 13.3465C4.36609 13.3799 4.41796 13.4389 4.4425 13.5108C4.46705 13.5826 4.46225 13.6613 4.42917 13.7296C4.36301 13.8662 4.35342 14.0236 4.4025 14.1673C4.45159 14.311 4.55533 14.4291 4.69091 14.4957C4.82649 14.5624 4.9828 14.572 5.12545 14.5226C5.2681 14.4732 5.38541 14.3687 5.45157 14.2321C5.48465 14.1638 5.54331 14.1116 5.61463 14.0869C5.68596 14.0622 5.76411 14.067 5.8319 14.1003C5.89969 14.1336 5.95156 14.1927 5.97611 14.2645C6.00065 14.3364 5.99585 14.4151 5.96277 14.4834C5.89661 14.6199 5.88702 14.7774 5.93611 14.921C5.98519 15.0647 6.08893 15.1829 6.22451 15.2495C6.36009 15.3161 6.5164 15.3258 6.65905 15.2764C6.8017 15.2269 6.91901 15.1224 6.98517 14.9859C7.01825 14.9176 7.07691 14.8654 7.14823 14.8406C7.21956 14.8159 7.29771 14.8208 7.3655 14.8541C7.43329 14.8874 7.48517 14.9465 7.50971 15.0183C7.53425 15.0901 7.52945 15.1689 7.49637 15.2371C7.43021 15.3737 7.42062 15.5311 7.46971 15.6748C7.51879 15.8185 7.62254 15.9366 7.75812 16.0033C7.89369 16.0699 8.05 16.0796 8.19265 16.0301C8.33531 15.9807 8.45262 15.8762 8.51878 15.7397C8.55186 15.6714 8.61051 15.6191 8.68184 15.5944C8.75316 15.5697 8.83132 15.5745 8.89911 15.6078C8.9669 15.6412 9.01877 15.7002 9.04331 15.7721C9.06785 15.8439 9.06306 15.9226 9.02998 15.9909C8.96382 16.1275 8.95422 16.2849 9.00331 16.4286C9.0524 16.5723 9.15614 16.6904 9.29172 16.757C9.4273 16.8237 9.5836 16.8333 9.72626 16.7839C9.86891 16.7345 9.98622 16.63 10.0524 16.4934C10.0855 16.4251 10.1441 16.3729 10.2154 16.3482C10.2868 16.3235 10.3649 16.3283 10.4327 16.3616C10.5005 16.3949 10.5524 16.454 10.5769 16.5258C10.6015 16.5977 10.5967 16.6764 10.5636 16.7447C10.4974 16.8812 10.4878 17.0387 10.5369 17.1823C10.586 17.326 10.6897 17.4442 10.8253 17.5108C10.9609 17.5775 11.1172 17.5871 11.2599 17.5377C11.4025 17.4882 11.5198 17.3837 11.586 17.2472C11.6191 17.1789 11.6777 17.1267 11.749 17.1019C11.8204 17.0772 11.8985 17.0821 11.9663 17.1154C12.0341 17.1487 12.086 17.2078 12.1105 17.2796C12.1351 17.3515 12.1303 17.4302 12.0972 17.4984C12.031 17.635 12.0214 17.7924 12.0705 17.9361C12.1196 18.0798 12.2233 18.1979 12.3589 18.2646C12.4945 18.3312 12.6508 18.3409 12.7935 18.2914C12.9361 18.242 13.0534 18.1375 13.1196 18.001C13.1527 17.9327 13.2113 17.8804 13.2826 17.8557C13.354 17.831 13.4321 17.8358 13.4999 17.8691C13.5677 17.9025 13.6196 17.9615 13.6441 18.0334C13.6687 18.1052 13.6639 18.1839 13.6308 18.2522C13.5646 18.3888 13.555 18.5462 13.6041 18.6899C13.6532 18.8336 13.7569 18.9517 13.8925 19.0184C14.0281 19.085 14.1844 19.0947 14.3271 19.0452C14.4697 18.9958 14.587 18.8913 14.6532 18.7547C14.6863 18.6864 14.7449 18.6342 14.8162 18.6095C14.8876 18.5848 14.9657 18.5896 15.0335 18.6229C15.1013 18.6562 15.1532 18.7153 15.1777 18.7871C15.2023 18.859 15.1975 18.9377 15.1644 19.006C15.0982 19.1425 15.0886 19.3 15.1377 19.4437C15.1868 19.5873 15.2905 19.7055 15.4261 19.7721C15.5617 19.8388 15.718 19.8484 15.8607 19.799C16.0033 19.7495 16.1206 19.6451 16.1868 19.5085C16.2199 19.4402 16.2785 19.388 16.3498 19.3633C16.4212 19.3385 16.4993 19.3434 16.5671 19.3767C16.7244 19.4549 16.9019 19.4822 17.0752 19.4547C17.2485 19.4272 17.409 19.3463 17.5348 19.2232C17.6606 19.1 17.7454 18.9406 17.7776 18.767C17.8098 18.5933 17.7878 18.4138 17.7146 18.2532C17.6927 18.2036 17.6853 18.1488 17.6931 18.0951C17.701 18.0414 17.7238 17.991 17.759 17.9499C17.7942 17.9087 17.8403 17.8785 17.8918 17.8627C17.9434 17.847 17.9984 17.8463 18.0503 17.8608C18.1868 17.8991 18.3326 17.8846 18.459 17.8201C18.5853 17.7557 18.6832 17.646 18.7334 17.5125C18.7835 17.3791 18.7823 17.2316 18.7299 17.099C18.6775 16.9664 18.5778 16.8584 18.4503 16.7961C18.3826 16.7628 18.3307 16.7037 18.3061 16.6319C18.2816 16.56 18.2864 16.4813 18.3195 16.413C18.3526 16.3447 18.4112 16.2925 18.4825 16.2678C18.5539 16.2431 18.632 16.2479 18.6998 16.2812Z" fill="white"/>
<path d="M6.93106 13.2176L6.65335 12.4048L5.84628 12.6845L5.66123 12.1428L6.46829 11.8631L6.19058 11.0502L6.72837 10.8639L7.00608 11.6767L7.81314 11.397L7.9982 11.9387L7.19113 12.2184L7.46884 13.0313L6.93106 13.2176Z" fill="white"/>
<path d="M9.99843 14.7251L9.72073 13.9123L8.91366 14.192L8.72861 13.6503L9.53567 13.3706L9.25797 12.5577L9.79575 12.3714L10.0735 13.1842L10.8805 12.9045L11.0656 13.4462L10.2585 13.7259L10.5362 14.5388L9.99843 14.7251Z" fill="white"/>
<path d="M8.67715 9.61346L8.39944 8.80058L7.59238 9.08029L7.40732 8.53863L8.21439 8.25892L7.93668 7.44605L8.47447 7.25966L8.75218 8.07254L9.55924 7.79283L9.74429 8.33449L8.93723 8.6142L9.21494 9.42707L8.67715 9.61346Z" fill="white"/>
<path d="M11.7445 11.121L11.4668 10.3081L10.6598 10.5878L10.4747 10.0461L11.2818 9.76643L11.0041 8.95355L11.5418 8.76717L11.8196 9.58004L12.6266 9.30034L12.8117 9.842L12.0046 10.1217L12.2823 10.9346L11.7445 11.121Z" fill="white"/>
<path d="M13.0653 16.2327L12.7876 15.4198L11.9806 15.6995L11.7955 15.1579L12.6026 14.8782L12.3249 14.0653L12.8626 13.8789L13.1404 14.6918L13.9474 14.4121L14.1325 14.9538L13.3254 15.2335L13.6031 16.0463L13.0653 16.2327Z" fill="white"/>
<path d="M16.1327 17.7402L15.855 16.9273L15.0479 17.2071L14.8629 16.6654L15.67 16.3857L15.3922 15.5728L15.93 15.3864L16.2077 16.1993L17.0148 15.9196L17.1998 16.4613L16.3928 16.741L16.6705 17.5538L16.1327 17.7402Z" fill="white"/>
<path d="M14.8119 12.6285L14.5342 11.8157L13.7271 12.0954L13.5421 11.5537L14.3492 11.274L14.0714 10.4611L14.6092 10.2747L14.8869 11.0876L15.694 10.8079L15.879 11.3496L15.072 11.6293L15.3497 12.4421L14.8119 12.6285Z" fill="white"/>
<path d="M17.8788 14.136L17.6011 13.3232L16.794 13.6029L16.609 13.0612L17.416 12.7815L17.1383 11.9686L17.6761 11.7822L17.9538 12.5951L18.7609 12.3154L18.9459 12.8571L18.1389 13.1368L18.4166 13.9497L17.8788 14.136Z" fill="white"/>
<path d="M5.78906 9.6167L6.30026 9.86796L6.54972 9.35307L6.03852 9.10182L5.78906 9.6167Z" fill="white"/>
<path d="M8.85596 11.1243L9.36716 11.3755L9.61662 10.8606L9.10542 10.6094L8.85596 11.1243Z" fill="white"/>
<path d="M11.9233 12.6318L12.4345 12.883L12.684 12.3681L12.1728 12.1169L11.9233 12.6318Z" fill="white"/>
<path d="M14.9907 14.1393L15.5019 14.3906L15.7514 13.8757L15.2402 13.6245L14.9907 14.1393Z" fill="white"/>
<path d="M18.0576 15.6469L18.5688 15.8982L18.8183 15.3833L18.3071 15.132L18.0576 15.6469Z" fill="white"/>
<path d="M10.4775 7.77753L10.9887 8.02878L11.2382 7.5139L10.727 7.26264L10.4775 7.77753Z" fill="white"/>
<path d="M13.5449 9.2851L14.0561 9.53635L14.3056 9.02147L13.7944 8.77021L13.5449 9.2851Z" fill="white"/>
<path d="M16.6118 10.7926L17.123 11.0439L17.3725 10.529L16.8613 10.2777L16.6118 10.7926Z" fill="white"/>
<path d="M7.23438 14.471L7.74558 14.7223L7.99504 14.2074L7.48383 13.9561L7.23438 14.471Z" fill="white"/>
<path d="M10.3018 15.9785L10.813 16.2298L11.0624 15.7149L10.5512 15.4636L10.3018 15.9785Z" fill="white"/>
<path d="M13.3691 17.4861L13.8803 17.7373L14.1298 17.2225L13.6186 16.9712L13.3691 17.4861Z" fill="white"/>
</g>
<defs>
<clipPath id="clip0_2305_2072">
<rect width="18.2275" height="18.3082" fill="white" transform="matrix(0.897457 0.441102 0.436018 -0.899938 0.132812 16.718)"/>
</clipPath>
</defs>
</svg>
