<svg width="17" height="17" viewBox="0 0 17 17" fill="none" xmlns="http://www.w3.org/2000/svg">
<path d="M14.7689 3.98278C14.7298 3.43481 14.9474 2.91971 14.5145 2.4862C14.2875 2.25982 14.0376 2.21137 13.7727 2.21137C13.5778 2.21137 13.3746 2.23715 13.1658 2.23715C13.1165 2.23715 13.0669 2.23489 13.0176 2.2312C12.2714 0.863826 12.1827 -0.566451 11.3876 0.228021C10.5008 1.11514 9.94946 3.55551 10.8635 5.13652C10.1728 4.64938 9.34824 4.38807 8.50306 4.38852C6.23103 4.38852 4.38995 6.22963 4.38995 8.50142C4.38995 9.38259 4.66932 10.1972 5.14135 10.8667C3.56065 9.94841 1.11579 10.5001 0.228397 11.3869C-0.566912 12.1825 0.863623 12.2709 2.23154 13.0175C2.27093 13.5655 2.05248 14.0806 2.48597 14.5141C2.7132 14.7407 2.96282 14.7892 3.22773 14.7892C3.42266 14.7892 3.62524 14.7634 3.83378 14.7634C3.88307 14.7634 3.93322 14.7657 3.98309 14.7694C4.72882 16.1362 4.81806 17.5664 5.61309 16.772C6.49991 15.8849 7.05099 13.4411 6.13442 11.8606C6.82651 12.3513 7.6541 12.6146 8.50249 12.614C10.7742 12.614 12.6153 10.7729 12.6153 8.50113C12.6153 7.62081 12.3365 6.80707 11.8656 6.13783C13.4466 7.05074 15.8855 6.49823 16.7715 5.61281C17.5671 4.81777 16.1363 4.72909 14.7689 3.98278ZM13.7724 2.75339C13.9773 2.75339 14.0538 2.79249 14.1311 2.86956C14.2561 2.99479 14.2589 3.12314 14.2357 3.48609C14.2201 3.73033 14.2022 4.00772 14.2694 4.314C14.4317 5.05464 14.906 5.49409 15.3937 5.75448C14.8819 5.93666 14.3428 6.0299 13.7996 6.03016C12.9216 6.03016 12.1776 5.76978 11.7041 5.29632C10.7873 4.37917 10.836 2.72959 11.244 1.60333C11.5041 2.09208 11.9438 2.56837 12.687 2.73157C12.8343 2.76359 12.9904 2.77917 13.1655 2.77917C13.2891 2.77917 13.4033 2.77209 13.5138 2.76529C13.6067 2.75877 13.694 2.75339 13.7724 2.75339ZM3.2283 14.2469C3.02373 14.2469 2.94723 14.2075 2.8696 14.1304C2.74465 14.0052 2.74182 13.8771 2.76505 13.5145C2.78092 13.2697 2.79849 12.9923 2.73134 12.686C2.56871 11.9454 2.09441 11.5059 1.60652 11.2455C2.11824 11.0634 2.65736 10.9701 3.20053 10.9698C4.07886 10.9698 4.82288 11.2305 5.29633 11.704C6.2129 12.6211 6.16445 14.2704 5.75645 15.3967C5.49664 14.9079 5.05663 14.4319 4.31402 14.2693C4.15629 14.2356 3.99534 14.2194 3.83406 14.2208C3.71053 14.2208 3.59663 14.2285 3.48613 14.2353C3.39405 14.2415 3.30678 14.2469 3.2283 14.2469ZM10.2251 11.7062C10.6207 9.59084 9.05839 8.94965 8.53508 8.54391C8.79029 8.92806 8.90465 9.38871 8.85874 9.84762C8.81282 10.3065 8.60946 10.7354 8.2832 11.0613C8.07288 11.2724 7.8178 11.4335 7.53683 11.5326C7.25586 11.6318 6.9562 11.6665 6.66 11.6343C6.08919 11.2994 5.62017 10.8157 5.30313 10.2349C7.46012 10.6278 8.08543 8.99215 8.49201 8.5068L8.49116 8.50368C7.71143 9.04769 6.6328 8.97544 5.93892 8.28126C5.72811 8.07068 5.56751 7.81527 5.46906 7.53404C5.3706 7.2528 5.33684 6.95299 5.37028 6.6569C5.70496 6.08768 6.18769 5.61983 6.76709 5.30312C6.36505 7.46016 7.99901 8.08321 8.48776 8.4881C8.22361 8.10346 8.10242 7.63793 8.14522 7.17329C8.18802 6.70865 8.39211 6.27365 8.72207 5.94375C8.93316 5.73228 9.18911 5.57101 9.47098 5.47189C9.75284 5.37277 10.0534 5.33833 10.3504 5.37113C10.9215 5.70784 11.3901 6.19365 11.7061 6.77647C9.54855 6.37328 8.91531 7.99169 8.50788 8.49037L8.50504 8.4983C8.50674 8.50056 8.50788 8.50283 8.50929 8.50425C9.28987 7.95684 10.3711 8.02768 11.0666 8.72327C11.2769 8.93351 11.4373 9.18834 11.5358 9.46893C11.6344 9.74951 11.6685 10.0487 11.6358 10.3442C11.2987 10.9184 10.8108 11.3895 10.2251 11.7062Z" fill="white"/>
</svg>
