<svg width="17" height="17" viewBox="0 0 17 17" fill="none" xmlns="http://www.w3.org/2000/svg">
<g clip-path="url(#clip0_2305_2064)">
<path d="M16.7092 7.28694H15.382C15.2642 6.63912 14.6962 6.14622 14.0149 6.14622C13.6874 6.14622 13.3861 6.2604 13.1483 6.45069C13.1225 6.37034 13.0896 6.29311 13.0504 6.21986L14.9185 1.24853C15.0247 0.964781 14.9851 0.646729 14.8125 0.397706C14.6398 0.148683 14.3558 0 14.0528 0C13.6694 0 13.3216 0.24122 13.1872 0.599979L11.5335 5.00201C11.2851 4.62233 10.8564 4.37078 10.3698 4.37078C10.2028 4.37078 10.0407 4.40083 9.88959 4.45648C9.87956 3.69865 9.26032 3.0852 8.50014 3.0852C7.73999 3.0852 7.12075 3.69865 7.11069 4.45648C6.95958 4.40083 6.79749 4.37078 6.63048 4.37078C6.49285 4.37078 6.38129 4.48235 6.38129 4.61997C6.38129 4.7576 6.49285 4.86916 6.63048 4.86916C6.88797 4.86916 7.12716 4.98013 7.29344 5.16517C7.31721 5.20661 7.34321 5.24688 7.37134 5.28586C7.20193 5.52091 7.11019 5.80243 7.11019 6.09638C7.11019 6.12042 7.11082 6.14446 7.11209 6.16843C7.10999 6.1688 7.10797 6.16936 7.10588 6.16976C6.99478 6.19031 6.88836 6.22408 6.78816 6.26947C6.78603 6.27043 6.78394 6.27136 6.78182 6.27232C6.75744 6.28351 6.73341 6.29523 6.70983 6.30778C6.709 6.30822 6.70814 6.30865 6.70731 6.30908C6.68264 6.32223 6.65833 6.33604 6.63459 6.35062C6.63257 6.35185 6.63061 6.35321 6.62858 6.35447C6.60913 6.36655 6.59 6.37911 6.57118 6.39212C6.56317 6.39763 6.5553 6.40334 6.5474 6.40905C6.53492 6.41809 6.52257 6.42728 6.51035 6.43675C6.50464 6.44113 6.49869 6.44518 6.49305 6.44966C6.37594 6.08081 6.10902 5.77581 5.75113 5.61188C5.77543 5.46562 5.83583 5.32883 5.92919 5.21009C6.01429 5.10195 5.99553 4.94526 5.88739 4.8602C5.77925 4.77513 5.6226 4.79382 5.5375 4.902C5.4004 5.07628 5.30919 5.27553 5.26722 5.4883C5.23472 5.48601 5.20205 5.48445 5.16894 5.48445C4.55176 5.48445 4.02752 5.88893 3.8467 6.44664C3.60966 6.25881 3.3104 6.14619 2.98518 6.14619C2.30385 6.14619 1.73591 6.63908 1.61811 7.28691H0.291181C0.153554 7.28691 0.0419922 7.39847 0.0419922 7.5361C0.0419922 7.59563 0.0427227 7.6551 0.0438516 7.71453C0.0441836 7.73279 0.044748 7.75109 0.0452129 7.76935C0.0462422 7.81125 0.0475371 7.85312 0.0491308 7.89492C0.0499277 7.91564 0.0507578 7.9364 0.0516875 7.95715C0.0535137 7.99802 0.0557051 8.03886 0.0580625 8.07963C0.0591914 8.09936 0.0602207 8.11911 0.0614824 8.1388C0.0651015 8.19491 0.0691191 8.25096 0.0737675 8.30694C0.0758593 8.33244 0.078416 8.35794 0.0807402 8.38341C0.0835624 8.41432 0.0863183 8.4452 0.0894394 8.47608C0.0929257 8.51064 0.096744 8.54511 0.100596 8.57964C0.102787 8.59919 0.105012 8.61878 0.107336 8.63831C0.112117 8.67858 0.117064 8.71879 0.122344 8.75897C0.12324 8.76567 0.12417 8.77235 0.125066 8.77906C0.139012 8.88325 0.154252 8.98717 0.171683 9.09043C0.172713 9.09648 0.174074 9.10235 0.175535 9.10823C0.362634 10.2003 0.743971 11.2482 1.3053 12.1971C2.08398 13.5135 3.17756 14.5943 4.4742 15.3308V16.7508C4.4742 16.8884 4.58576 17 4.72339 17H12.2792C12.4169 17 12.5284 16.8884 12.5284 16.7508V15.3294C13.824 14.593 14.9167 13.5127 15.6949 12.1971C16.2562 11.2482 16.6375 10.2003 16.8247 9.10816C16.8261 9.10232 16.8275 9.09644 16.8285 9.09043C16.8459 8.98754 16.861 8.88404 16.8749 8.78025C16.8759 8.77295 16.877 8.76568 16.8779 8.75837C16.8832 8.71859 16.8881 8.67882 16.8928 8.63897C16.8952 8.61892 16.8975 8.5988 16.8998 8.57871C16.9036 8.54461 16.9074 8.51054 16.9108 8.47641C16.914 8.4448 16.9168 8.41316 16.9197 8.38152C16.9219 8.35678 16.9244 8.33201 16.9264 8.30724C16.9311 8.25106 16.9351 8.19478 16.9388 8.13847C16.94 8.11911 16.941 8.09972 16.9421 8.08036C16.9445 8.03919 16.9467 7.99802 16.9486 7.95682C16.9495 7.93626 16.9503 7.91568 16.9511 7.89509C16.9527 7.85315 16.954 7.81119 16.9551 7.76925C16.9555 7.75102 16.9561 7.73279 16.9564 7.71457C16.9576 7.65513 16.9583 7.59566 16.9583 7.53613C16.9584 7.39851 16.8468 7.28694 16.7092 7.28694ZM14.0149 6.64456C14.4201 6.64456 14.763 6.9162 14.871 7.28694H13.1588C13.2668 6.9162 13.6097 6.64456 14.0149 6.64456ZM13.6538 0.774993C13.7157 0.609542 13.876 0.498345 14.0528 0.498345C14.1945 0.498345 14.3221 0.565149 14.4028 0.681626C14.4836 0.798069 14.5014 0.941008 14.4518 1.07346L12.6829 5.78092C12.5512 5.67742 12.4019 5.59887 12.2422 5.54863C12.2382 5.5474 12.2343 5.54621 12.2303 5.54501C12.214 5.54003 12.1976 5.53538 12.1811 5.531C12.1759 5.52964 12.1708 5.52821 12.1656 5.52688C12.1474 5.5223 12.1291 5.51805 12.1107 5.5142C12.1081 5.51367 12.1056 5.51304 12.1031 5.51251C12.0826 5.50832 12.062 5.5047 12.0412 5.50145C12.0349 5.50045 12.0285 5.49966 12.0221 5.49873C12.0074 5.49663 11.9925 5.49471 11.9777 5.49305C11.9702 5.49222 11.9628 5.49145 11.9553 5.49076C11.9401 5.48933 11.9249 5.4882 11.9096 5.48727C11.9033 5.48691 11.8971 5.48641 11.8908 5.48611C11.8886 5.48601 11.8864 5.48578 11.8841 5.48571L13.6538 0.774993ZM11.5078 6.04113C11.5088 6.04073 11.5098 6.04033 11.5108 6.03994C11.5322 6.0319 11.554 6.0247 11.5761 6.01829C11.5776 6.01786 11.5791 6.01742 11.5807 6.01699C11.6193 6.00604 11.6584 5.99764 11.6979 5.99196C11.7001 5.99166 11.7022 5.99143 11.7044 5.99113C11.721 5.98887 11.7377 5.98714 11.7544 5.98582C11.7588 5.98548 11.7632 5.98508 11.7677 5.98482C11.7866 5.98359 11.8056 5.98279 11.8246 5.98279C11.8419 5.98279 11.8591 5.98342 11.8762 5.98439C11.8813 5.98469 11.8864 5.98518 11.8915 5.98555C11.9037 5.98645 11.9158 5.98754 11.9279 5.98894C11.9335 5.9896 11.9392 5.99033 11.9448 5.99109C11.9565 5.99269 11.9683 5.99455 11.98 5.99657C11.9852 5.9975 11.9904 5.99837 11.9957 5.99939C12.009 6.00202 12.0223 6.00497 12.0355 6.00816C12.0388 6.00896 12.042 6.00959 12.0453 6.01042C12.0611 6.01447 12.0769 6.01898 12.0924 6.0239C12.0982 6.02572 12.1039 6.02778 12.1096 6.02971C12.1192 6.03296 12.1288 6.03628 12.1382 6.03984C12.1457 6.04266 12.1531 6.04561 12.1605 6.04864C12.1678 6.05159 12.175 6.05468 12.1821 6.0578C12.1905 6.06148 12.1989 6.0652 12.2071 6.06912C12.212 6.07148 12.2169 6.07397 12.2218 6.07643C12.2558 6.09343 12.2887 6.11245 12.3201 6.1335C12.3213 6.1343 12.3225 6.1351 12.3237 6.13589C12.3347 6.14336 12.3456 6.1511 12.3563 6.15904C12.3573 6.15983 12.3584 6.16063 12.3594 6.16139C12.4033 6.1944 12.444 6.23135 12.4811 6.27173C12.4829 6.27372 12.4847 6.27571 12.4865 6.2777C12.4946 6.28667 12.5025 6.2958 12.5103 6.3051C12.5126 6.30795 12.515 6.31091 12.5173 6.31379C12.6415 6.46703 12.7161 6.66203 12.7161 6.8742C12.7161 7.01949 12.6814 7.16004 12.6149 7.28681H11.0343C10.9677 7.16017 10.9329 7.01959 10.9329 6.8743C10.9329 6.86998 10.9332 6.86576 10.9333 6.86148C10.9333 6.86125 10.9333 6.86105 10.9333 6.86082C10.9388 6.49648 11.1715 6.16946 11.5078 6.04113ZM9.70684 5.16513C9.87312 4.98009 10.1123 4.86913 10.3698 4.86913C10.8097 4.86913 11.1763 5.18944 11.2484 5.60982C11.2469 5.61052 11.2454 5.61132 11.2439 5.61201C11.2237 5.62138 11.2036 5.63121 11.1839 5.64153C11.1834 5.6418 11.1829 5.64203 11.1825 5.64226C10.8625 5.80967 10.6156 6.09788 10.5025 6.44614C10.4977 6.44236 10.4927 6.43897 10.4878 6.43525C10.4753 6.42559 10.4626 6.41616 10.4497 6.4069C10.4422 6.40152 10.4347 6.39607 10.4271 6.39086C10.3835 6.36081 10.3381 6.33325 10.2911 6.30825C10.2894 6.30732 10.2877 6.30649 10.286 6.30559C10.2633 6.29364 10.2401 6.28235 10.2167 6.27163C10.2144 6.27056 10.2121 6.26954 10.2098 6.26847C10.1102 6.22358 10.0045 6.19018 9.89417 6.16973C9.89215 6.16936 9.89019 6.16883 9.88819 6.16846C9.88945 6.14446 9.89009 6.12039 9.89009 6.09635C9.89009 5.80243 9.79831 5.52091 9.62891 5.28586C9.6571 5.24685 9.68307 5.20654 9.70684 5.16513ZM9.64076 6.64456C9.66308 6.64456 9.68516 6.64573 9.70707 6.64732C9.71434 6.64785 9.72161 6.64858 9.72885 6.64931C9.74376 6.65077 9.75857 6.6527 9.77325 6.65489C9.78115 6.65608 9.78912 6.65711 9.79699 6.65851C9.81634 6.66196 9.8355 6.66598 9.85439 6.67063C9.86406 6.67302 9.87355 6.67594 9.88311 6.67863C9.89364 6.68162 9.90413 6.68467 9.91452 6.68803C9.92505 6.69145 9.93548 6.69503 9.9459 6.69882C9.95543 6.7023 9.96483 6.70606 9.97422 6.70987C9.98418 6.71392 9.99421 6.71778 10.004 6.72216C10.0209 6.72973 10.0376 6.73783 10.0539 6.74643C10.0623 6.75081 10.0705 6.75563 10.0787 6.76028C10.0892 6.76625 10.0997 6.77233 10.11 6.7787C10.1175 6.78335 10.125 6.78813 10.1323 6.79301C10.1448 6.80128 10.157 6.80985 10.169 6.81871C10.1736 6.82213 10.1784 6.82539 10.183 6.82891C10.1998 6.84179 10.2161 6.85524 10.2319 6.86928C10.2351 6.87217 10.2383 6.87526 10.2415 6.87818C10.2545 6.89003 10.2671 6.90225 10.2794 6.91487C10.2831 6.91875 10.2869 6.92271 10.2906 6.92666C10.3031 6.93997 10.3152 6.95368 10.3269 6.96776C10.3292 6.97042 10.3315 6.97301 10.3336 6.9757C10.4072 7.06647 10.4633 7.17183 10.4968 7.28681H8.78459C8.8927 6.9162 9.23562 6.64456 9.64076 6.64456ZM8.50017 3.58351C8.99178 3.58351 9.39174 3.98344 9.39174 4.47508C9.39174 4.61815 9.35821 4.75587 9.29499 4.87965C9.28157 4.89602 9.26846 4.91276 9.25574 4.92979C9.03259 4.78463 8.77227 4.7065 8.50017 4.7065C8.22807 4.7065 7.96776 4.78463 7.7446 4.92982C7.73189 4.91279 7.71881 4.89609 7.70536 4.87969C7.64214 4.75594 7.6086 4.61815 7.6086 4.47511C7.60864 3.98347 8.00857 3.58351 8.50017 3.58351ZM7.857 5.47943C7.85959 5.47675 7.86158 5.47369 7.86404 5.47093C7.86706 5.46821 7.87018 5.46569 7.8731 5.46283C8.04117 5.29649 8.26387 5.20485 8.50021 5.20485C8.73655 5.20485 8.95924 5.29649 9.12731 5.46283C9.1302 5.46569 9.13332 5.46818 9.13631 5.47087C9.13877 5.47366 9.14079 5.47671 9.14338 5.47943C9.30355 5.64638 9.39181 5.86549 9.39181 6.09635C9.39181 6.12079 9.39045 6.14522 9.38842 6.16956C9.02199 6.2371 8.70553 6.44867 8.50014 6.74338C8.29475 6.44873 7.97842 6.2372 7.61212 6.16959C7.61003 6.14522 7.60867 6.12079 7.60867 6.09635C7.60864 5.86545 7.69683 5.64635 7.857 5.47943ZM6.6666 6.97563C6.66856 6.97321 6.67065 6.97088 6.67268 6.96846C6.68456 6.95412 6.69688 6.94014 6.70967 6.92656C6.71325 6.92274 6.71684 6.91899 6.72049 6.91523C6.73291 6.90245 6.74572 6.89007 6.75894 6.87801C6.76203 6.87519 6.76498 6.87227 6.7681 6.86951C6.78394 6.85544 6.80034 6.84192 6.81718 6.82897C6.82159 6.82559 6.82621 6.82247 6.83069 6.81915C6.84284 6.81015 6.85523 6.80145 6.86788 6.79308C6.87518 6.78827 6.88255 6.78355 6.88999 6.77894C6.90035 6.77249 6.91091 6.76635 6.9216 6.76031C6.92973 6.75569 6.9378 6.75095 6.9461 6.7466C6.96247 6.738 6.97921 6.72986 6.99617 6.72226C7.0059 6.71791 7.01586 6.71406 7.02576 6.71004C7.03519 6.70622 7.04465 6.70244 7.05428 6.69892C7.06461 6.69513 7.07503 6.69155 7.08556 6.68816C7.09598 6.68477 7.10654 6.68172 7.11713 6.67873C7.12663 6.67604 7.13609 6.67315 7.14575 6.67076C7.16465 6.66608 7.18384 6.66206 7.2032 6.65861C7.21106 6.65721 7.21903 6.65615 7.22697 6.65496C7.24164 6.65276 7.25645 6.65084 7.27133 6.64938C7.27857 6.64865 7.28584 6.64792 7.29311 6.64739C7.31502 6.64576 7.3371 6.64463 7.35945 6.64463C7.76463 6.64463 8.10751 6.91626 8.21556 7.28701H6.50331C6.53678 7.17186 6.59299 7.06644 6.6666 6.97563ZM5.16901 5.98279C5.25713 5.98279 5.34223 5.99584 5.42268 6.01978C5.4435 6.02596 5.46392 6.0329 5.48401 6.04043C5.48885 6.04226 5.49364 6.04422 5.49842 6.04611C5.51269 6.05176 5.52667 6.05787 5.54052 6.06417C5.55426 6.07048 5.56784 6.07712 5.58119 6.08413C5.5866 6.08695 5.59205 6.08977 5.5974 6.09266C5.79326 6.20044 5.9443 6.37967 6.01552 6.59499C6.01971 6.60781 6.02372 6.62069 6.02734 6.63377C6.02877 6.63889 6.03036 6.64397 6.03172 6.64911C6.037 6.66957 6.04155 6.69032 6.04537 6.71127C6.04584 6.71373 6.04627 6.71622 6.0467 6.71871C6.05467 6.76456 6.05932 6.81151 6.06011 6.85929C6.06011 6.85962 6.06021 6.85995 6.06021 6.86032C6.06028 6.865 6.06058 6.86961 6.06058 6.8743C6.06058 7.01959 6.02585 7.16014 5.95934 7.28691H4.37868C4.31217 7.16017 4.27744 7.01959 4.27744 6.8743C4.27747 6.38272 4.67741 5.98279 5.16901 5.98279ZM2.98521 6.64456C3.39035 6.64456 3.73328 6.9162 3.84132 7.28694H2.1291C2.23718 6.9162 2.58007 6.64456 2.98521 6.64456ZM16.445 8.04856C16.4409 8.1211 16.4355 8.19359 16.4296 8.26594C16.4282 8.28204 16.427 8.29818 16.4255 8.31428C16.4198 8.38015 16.4131 8.4459 16.4058 8.51157C16.4032 8.53558 16.4004 8.55962 16.3976 8.58359C16.3906 8.64223 16.383 8.70073 16.3749 8.75913C16.373 8.77268 16.3709 8.78623 16.369 8.79977H3.13585C2.99823 8.79977 2.88666 8.91134 2.88666 9.04896C2.88666 9.18659 2.99823 9.29815 3.13585 9.29815H16.2822C16.0914 10.2318 15.7492 11.1266 15.266 11.9435C14.5182 13.2077 13.4634 14.241 12.2129 14.9352H10.7842C10.6466 14.9352 10.535 15.0467 10.535 15.1844C10.535 15.322 10.6466 15.4335 10.7842 15.4335H12.0301V16.5017H4.97265V15.4335H9.78749C9.92515 15.4335 10.0367 15.322 10.0367 15.1844C10.0367 15.0467 9.92515 14.9352 9.78749 14.9352H4.78744C3.53695 14.241 2.48215 13.2077 1.73435 11.9435C1.25115 11.1266 0.908957 10.2318 0.718139 9.29815H2.13913C2.27676 9.29815 2.38832 9.18659 2.38832 9.04896C2.38832 8.91134 2.27676 8.79977 2.13913 8.79977H0.63138C0.629421 8.78636 0.627362 8.77295 0.62547 8.7595C0.617335 8.70106 0.609731 8.64249 0.602759 8.58379C0.59987 8.55965 0.597147 8.53548 0.594458 8.51131C0.587253 8.44596 0.580579 8.38052 0.574802 8.31491C0.573341 8.29834 0.572046 8.28174 0.570684 8.26517C0.564774 8.19315 0.559462 8.12104 0.555312 8.04885C0.55478 8.03986 0.554415 8.03082 0.553917 8.02179C0.549601 7.94304 0.546114 7.86418 0.54389 7.78532H16.4565C16.4543 7.86434 16.4507 7.94337 16.4464 8.02229C16.4459 8.03102 16.4455 8.03982 16.445 8.04856Z" fill="white"/>
</g>
<defs>
<clipPath id="clip0_2305_2064">
<rect width="17" height="17" fill="white"/>
</clipPath>
</defs>
</svg>
