<svg width="19" height="20" viewBox="0 0 19 20" fill="none" xmlns="http://www.w3.org/2000/svg">
<g clip-path="url(#clip0_2305_2054)">
<path d="M13.2807 1.99167C13.6143 1.67599 13.8302 1.24565 13.89 0.777667C13.9228 0.586305 13.8731 0.389464 13.7541 0.240667C13.6333 0.0879776 13.4542 -0.000221635 13.2655 4.18281e-07H0.66785C0.479089 -0.000221635 0.300021 0.0879776 0.179233 0.240667C0.0602817 0.389464 0.0104848 0.586305 0.0433833 0.777667C0.103089 1.24565 0.319063 1.67599 0.65265 1.99167C0.243789 2.30329 0.00120334 2.80198 0 3.33333V16.6667C0.00120334 17.198 0.243789 17.6967 0.65265 18.0083C0.319063 18.324 0.103089 18.7544 0.0433833 19.2223C0.0104848 19.4137 0.0602817 19.6105 0.179233 19.7593C0.300021 19.912 0.479089 20.0002 0.66785 20H13.2655C13.4542 20.0002 13.6333 19.912 13.7541 19.7593C13.8731 19.6105 13.9228 19.4137 13.89 19.2223C13.8302 18.7544 13.6143 18.324 13.2807 18.0083C13.6895 17.6967 13.9321 17.198 13.9333 16.6667V3.33333C13.9321 2.80198 13.6895 2.30329 13.2807 1.99167ZM0.66785 0.666667H1.58333C1.58333 0.850762 1.72511 1 1.9 1C2.07489 1 2.21667 0.850762 2.21667 0.666667H2.85C2.85 0.850762 2.99178 1 3.16667 1C3.34156 1 3.48333 0.850762 3.48333 0.666667H4.11667C4.11667 0.850762 4.25844 1 4.43333 1C4.60822 1 4.75 0.850762 4.75 0.666667H5.38333C5.38333 0.850762 5.52511 1 5.7 1C5.87489 1 6.01667 0.850762 6.01667 0.666667H6.65C6.65 0.850762 6.79178 1 6.96667 1C7.14156 1 7.28333 0.850762 7.28333 0.666667H7.91667C7.91667 0.850762 8.05844 1 8.23333 1C8.40822 1 8.55 0.850762 8.55 0.666667H9.18333C9.18333 0.850762 9.32511 1 9.5 1C9.67489 1 9.81667 0.850762 9.81667 0.666667H10.45C10.45 0.850762 10.5918 1 10.7667 1C10.9416 1 11.0833 0.850762 11.0833 0.666667H11.7167C11.7167 0.850762 11.8584 1 12.0333 1C12.2082 1 12.35 0.850762 12.35 0.666667H13.2652C13.1486 1.33 12.8412 1.66667 12.35 1.66667H1.58333C1.08997 1.66667 0.78185 1.32767 0.66785 0.666667ZM13.2683 19.3333C13.2675 19.3337 13.2666 19.3337 13.2658 19.3333H12.35C12.35 19.1492 12.2082 19 12.0333 19C11.8584 19 11.7167 19.1492 11.7167 19.3333H11.0833C11.0833 19.1492 10.9416 19 10.7667 19C10.5918 19 10.45 19.1492 10.45 19.3333V19.335H9.81667V19.3333C9.81667 19.1492 9.67489 19 9.5 19C9.32511 19 9.18333 19.1492 9.18333 19.3333V19.3357H8.55V19.3333C8.55 19.1492 8.40822 19 8.23333 19C8.05844 19 7.91667 19.1492 7.91667 19.3333V19.3367H7.28333V19.3333C7.28333 19.1492 7.14156 19 6.96667 19C6.79178 19 6.65 19.1492 6.65 19.3333V19.3373H6.01667V19.3333C6.01667 19.1492 5.87489 19 5.7 19C5.52511 19 5.38333 19.1492 5.38333 19.3333V19.338H4.75V19.3333C4.75 19.1492 4.60822 19 4.43333 19C4.25844 19 4.11667 19.1492 4.11667 19.3333V19.339H3.48333V19.3333C3.48333 19.1492 3.34156 19 3.16667 19C2.99178 19 2.85 19.1492 2.85 19.3333V19.3397H2.21667V19.3333C2.21667 19.1492 2.07489 19 1.9 19C1.72511 19 1.58333 19.1492 1.58333 19.3333V19.3403H0.666583C0.78185 18.6723 1.08997 18.3333 1.58333 18.3333H12.35C12.8434 18.3333 13.1515 18.6723 13.2683 19.3333ZM13.3 16.6667C13.3 17.219 12.8747 17.6667 12.35 17.6667H1.58333C1.05866 17.6667 0.633333 17.219 0.633333 16.6667V3.33333C0.633333 2.78105 1.05866 2.33333 1.58333 2.33333H12.35C12.8747 2.33333 13.3 2.78105 13.3 3.33333V16.6667Z" fill="white"/>
<path d="M9.18312 16.3334H4.74977C4.57488 16.3334 4.43311 16.4826 4.43311 16.6667C4.43311 16.8508 4.57488 17 4.74977 17H9.18312C9.35801 17 9.49978 16.8508 9.49978 16.6667C9.49978 16.4826 9.35801 16.3334 9.18312 16.3334Z" fill="white"/>
<path d="M11.7453 8.23926C11.1258 6.36986 9.57248 5.01637 7.7121 4.72504C5.85172 4.4337 3.99133 5.25261 2.88177 6.85126C1.90179 7.50446 1.29598 8.62923 1.26673 9.84982C1.23749 11.0704 1.78865 12.2259 2.7361 12.9303C3.82529 14.6751 5.782 15.5898 7.74204 15.2704C9.70208 14.951 11.3045 13.4564 11.8415 11.4466C12.328 11.113 12.6345 10.5555 12.6668 9.94526C12.6844 9.24059 12.3296 8.58368 11.7453 8.23926ZM10.9634 7.9856C10.7935 7.95919 10.6219 7.94571 10.4501 7.94526C8.79964 7.94526 6.3651 6.96293 5.39515 6.5406C5.02599 6.37921 4.62585 6.31182 4.22729 6.34393C5.28105 5.46128 6.65991 5.13319 7.97187 5.45293C9.28383 5.77267 10.3854 6.70527 10.9634 7.9856ZM1.92259 10.3276C1.75068 8.88819 2.57851 7.52448 3.89162 7.08393C4.06152 7.02784 4.23859 6.99951 4.41665 6.99993C4.66955 7.00089 4.91981 7.05412 5.15322 7.1566C6.44212 7.7353 7.78267 8.17716 9.15494 8.4756C8.62528 8.94231 8.17638 9.50202 7.8281 10.1299C7.63763 10.4563 7.46528 10.7939 7.31194 11.1413C6.83015 12.3576 5.63622 13.0857 4.39417 12.9206C3.10789 12.7444 2.09428 11.681 1.92259 10.3276ZM6.96677 14.6666C5.91255 14.6664 4.89331 14.2684 4.09397 13.5449C4.16744 13.5596 4.2409 13.5743 4.31564 13.5839C4.46031 13.6026 4.60593 13.612 4.75169 13.6119C6.12181 13.6091 7.3574 12.7438 7.88922 11.4146C7.88922 11.4119 7.97599 11.2113 8.12704 10.9186C8.61305 11.5638 9.35124 11.9415 10.1334 11.9453C10.4406 11.9481 10.7469 11.909 11.0445 11.8289C10.3486 13.5498 8.74353 14.6667 6.96677 14.6666ZM10.1334 11.2786C9.4609 11.2617 8.83975 10.896 8.4741 10.3016C8.90762 9.59993 9.65844 8.61193 10.4501 8.61193C11.7586 8.61193 12.0334 9.33726 12.0334 9.94526C12.0334 10.4609 11.5176 11.2786 10.1334 11.2786Z" fill="white"/>
<path d="M2.32547 5.52505C2.62524 5.52026 2.9186 5.43291 3.17635 5.27172C3.47757 5.09485 3.71947 4.82427 3.8689 4.49705C4.01744 4.18591 4.0126 3.81808 3.85592 3.51139C3.68201 3.21507 3.38162 3.0268 3.05127 3.00705C2.34911 2.96232 1.68942 3.36325 1.37515 4.02572C1.22661 4.33687 1.23146 4.70469 1.38813 5.01139C1.58878 5.34908 1.94759 5.54571 2.32547 5.52505ZM1.9518 4.30172C2.04722 4.10143 2.19817 3.93637 2.38469 3.82839C2.54607 3.72718 2.72952 3.6715 2.91732 3.66672C2.94234 3.66672 2.9664 3.66672 2.99015 3.67039C3.11561 3.67394 3.23248 3.73828 3.30682 3.84472C3.35729 3.96604 3.35156 4.10512 3.2913 4.22139C3.19582 4.42143 3.04501 4.58634 2.85874 4.69439C2.45467 4.94005 2.04775 4.88272 1.93565 4.67805C1.88524 4.55677 1.8912 4.41772 1.9518 4.30172Z" fill="white"/>
<path d="M3.8559 14.9887C3.54557 14.422 2.76023 14.3077 2.068 14.7283C1.76679 14.9051 1.52481 15.1756 1.37513 15.5027C1.21625 15.8113 1.22107 16.1846 1.38784 16.4886C1.55461 16.7926 1.8594 16.9836 2.19277 16.993C2.2371 16.9977 2.28207 17 2.32767 17C2.62649 16.9955 2.91902 16.909 3.17633 16.749C3.47747 16.572 3.71934 16.3015 3.86888 15.9743C4.01736 15.6632 4.01263 15.2954 3.85622 14.9887H3.8559ZM3.2935 15.7C3.09157 16.1032 2.68782 16.3487 2.25515 16.3313C2.12618 16.3431 2.00241 16.2752 1.93767 16.1572C1.87293 16.0392 1.87893 15.8924 1.95305 15.7807C2.04846 15.5804 2.19942 15.4153 2.38593 15.3073C2.54629 15.2059 2.72899 15.1501 2.91603 15.1457C3.06747 15.1293 3.21614 15.1967 3.30902 15.3237C3.35948 15.4449 3.35375 15.5838 3.2935 15.7Z" fill="white"/>
<path d="M10.7572 5.27172C11.0149 5.43291 11.3083 5.52025 11.608 5.52505C11.986 5.54561 12.3448 5.34902 12.5457 5.01138C12.7021 4.70459 12.7068 4.33685 12.5584 4.02572C12.2441 3.36325 11.5844 2.96232 10.8822 3.00705C10.5519 3.0268 10.2515 3.21507 10.0776 3.51139C9.92091 3.81808 9.91607 4.1859 10.0646 4.49705C10.214 4.82427 10.4559 5.09485 10.7572 5.27172ZM10.6257 3.84472C10.7001 3.73828 10.8169 3.67394 10.9424 3.67039C10.9662 3.66805 10.9902 3.66672 11.0152 3.66672C11.203 3.67166 11.3864 3.72733 11.5479 3.82839C11.7344 3.93636 11.8853 4.10143 11.9808 4.30172C12.041 4.41787 12.0467 4.55684 11.9963 4.67805C11.8835 4.88305 11.4769 4.94005 11.0729 4.69438C10.8865 4.58639 10.7356 4.42148 10.64 4.22138C10.5801 4.10491 10.5749 3.96583 10.6257 3.84472Z" fill="white"/>
<path d="M11.8657 14.7284C11.1738 14.308 10.3884 14.422 10.0778 14.9887C9.92138 15.2955 9.91665 15.6632 10.0651 15.9744C10.2147 16.3015 10.4565 16.5721 10.7577 16.749C11.0149 16.909 11.3073 16.9955 11.606 17C11.6516 17 11.6966 16.9977 11.7409 16.993C12.0742 16.9834 12.3789 16.7924 12.5456 16.4885C12.7123 16.1846 12.7173 15.8113 12.5586 15.5027C12.4089 15.1756 12.1669 14.9052 11.8657 14.7284ZM11.9971 16.1554C11.9228 16.2618 11.8059 16.3261 11.6804 16.3297C11.2474 16.3481 10.8429 16.1032 10.6402 15.7C10.5799 15.5839 10.5742 15.4449 10.6247 15.3237C10.7371 15.1194 11.144 15.0617 11.5478 15.3074C11.7343 15.4153 11.8852 15.5804 11.9806 15.7807C12.0408 15.8962 12.0469 16.0345 11.9971 16.1554Z" fill="white"/>
</g>
<defs>
<clipPath id="clip0_2305_2054">
<rect width="19" height="20" fill="white"/>
</clipPath>
</defs>
</svg>
