<svg width="20" height="20" viewBox="0 0 20 20" fill="none" xmlns="http://www.w3.org/2000/svg">
<path d="M12.9169 1.66666C13.3468 1.66661 13.7713 1.76159 14.1602 1.94479C14.5491 2.128 14.8927 2.3949 15.1664 2.7264C15.44 3.05789 15.6371 3.44579 15.7433 3.86232C15.8496 4.27886 15.8625 4.71373 15.781 5.13582L15.7685 5.19082C16.4935 5.43266 17.1274 5.89015 17.5852 6.50207C18.0431 7.11399 18.3032 7.85115 18.3306 8.61492C18.3581 9.37869 18.1516 10.1326 17.7389 10.7758C17.3261 11.4191 16.7268 11.9209 16.021 12.2142L15.116 17.6367C15.0837 17.8312 14.9834 18.008 14.8329 18.1356C14.6825 18.2632 14.4916 18.3332 14.2944 18.3333H5.70604C5.50879 18.3332 5.31796 18.2632 5.16751 18.1356C5.01705 18.008 4.91673 17.8312 4.88438 17.6367L4.02688 12.495C3.45015 12.4623 2.90254 12.2309 2.47715 11.8401C2.05175 11.4493 1.77481 10.9232 1.69341 10.3513C1.61201 9.77942 1.73116 9.19698 2.03061 8.70301C2.33007 8.20903 2.79135 7.834 3.33604 7.64166L3.33354 7.49999C3.33338 6.6562 3.54676 5.8261 3.9538 5.08699C4.36085 4.34787 4.94833 3.72379 5.66152 3.27287C6.37471 2.82195 7.19042 2.55885 8.03268 2.50807C8.87494 2.4573 9.71635 2.62051 10.4785 2.98249C10.7438 2.57798 11.1056 2.24587 11.5313 2.01615C11.957 1.78643 12.4332 1.66632 12.9169 1.66666ZM7.50021 12.5H5.71688L6.41188 16.6667H7.50021V12.5ZM10.8335 12.5H9.16688V16.6667H10.8335V12.5ZM14.2827 12.5H12.5002V16.6667H13.5877L14.2827 12.5ZM8.33354 4.16666C6.54854 4.16666 5.09104 5.56999 5.00438 7.30583L5.00021 7.46999L5.00271 7.61166C5.0086 7.93889 4.91802 8.26061 4.74226 8.53669C4.5665 8.81278 4.31335 9.03101 4.01438 9.16416L3.88938 9.21333C3.70434 9.27921 3.54849 9.40828 3.44927 9.5778C3.35005 9.74731 3.31383 9.9464 3.347 10.14C3.38016 10.3336 3.48057 10.5093 3.63056 10.6361C3.78054 10.7629 3.97046 10.8328 4.16688 10.8333H14.5835C14.8916 10.8333 15.1958 10.765 15.4742 10.6333C15.7527 10.5016 15.9984 10.3099 16.1939 10.0718C16.3893 9.83367 16.5295 9.55521 16.6044 9.25643C16.6792 8.95765 16.6869 8.64598 16.6269 8.34387C16.5668 8.04176 16.4406 7.75672 16.2571 7.50928C16.0737 7.26184 15.8377 7.05815 15.566 6.91289C15.2944 6.76762 14.994 6.68439 14.6863 6.6692C14.3787 6.654 14.0715 6.70721 13.7869 6.82499L13.641 6.89249C13.2565 7.09064 12.81 7.13151 12.3959 7.00649C11.9818 6.88146 11.6325 6.60032 11.4219 6.22249L11.3635 6.10832C11.0972 5.52868 10.6702 5.03763 10.1331 4.69346C9.596 4.34929 8.97144 4.16645 8.33354 4.16666ZM12.9169 3.33332C12.7009 3.33328 12.4885 3.38922 12.3005 3.49569C12.1126 3.60216 11.9554 3.75552 11.8444 3.94082C12.2747 4.36448 12.6248 4.8625 12.8777 5.41082C13.2548 5.21703 13.6624 5.08934 14.0827 5.03332C14.1558 4.84398 14.1816 4.6397 14.1581 4.43812C14.1345 4.23654 14.0622 4.04374 13.9474 3.87636C13.8326 3.70899 13.6788 3.57208 13.4993 3.47747C13.3197 3.38286 13.1198 3.33338 12.9169 3.33332Z" fill="white"/>
</svg>
