<svg width="19" height="20" viewBox="0 0 19 20" fill="none" xmlns="http://www.w3.org/2000/svg">
<path d="M15.0417 1.66667H3.95833C3.53841 1.66667 3.13568 1.84227 2.83875 2.15483C2.54181 2.46739 2.375 2.89131 2.375 3.33334V5.00001C2.375 5.44203 2.54181 5.86596 2.83875 6.17852C3.13568 6.49108 3.53841 6.66667 3.95833 6.66667V15.8333C3.95833 16.4964 4.20856 17.1323 4.65395 17.6011C5.09935 18.0699 5.70344 18.3333 6.33333 18.3333H12.6667C13.2966 18.3333 13.9006 18.0699 14.346 17.6011C14.7914 17.1323 15.0417 16.4964 15.0417 15.8333V6.66667C15.4616 6.66667 15.8643 6.49108 16.1613 6.17852C16.4582 5.86596 16.625 5.44203 16.625 5.00001V3.33334C16.625 2.89131 16.4582 2.46739 16.1613 2.15483C15.8643 1.84227 15.4616 1.66667 15.0417 1.66667ZM13.4583 13.3333H8.70833V10H13.4583V13.3333ZM13.4583 8.33334H7.91667C7.7067 8.33334 7.50534 8.42114 7.35687 8.57742C7.20841 8.7337 7.125 8.94566 7.125 9.16667V14.1667C7.125 14.3877 7.20841 14.5996 7.35687 14.7559C7.50534 14.9122 7.7067 15 7.91667 15H13.4583V15.8333C13.4583 16.0544 13.3749 16.2663 13.2265 16.4226C13.078 16.5789 12.8766 16.6667 12.6667 16.6667H6.33333C6.12337 16.6667 5.92201 16.5789 5.77354 16.4226C5.62507 16.2663 5.54167 16.0544 5.54167 15.8333V6.66667H13.4583V8.33334ZM3.95833 5.00001V3.33334H15.0417V5.00001H3.95833Z" fill="white"/>
</svg>
