<svg width="62" height="62" viewBox="0 0 62 62" fill="none" xmlns="http://www.w3.org/2000/svg">
<path d="M23.25 23.25H28.4167V38.75H23.25V23.25Z" fill="#74B0EC"/>
<path d="M38.7502 38.75H33.5835V23.25H38.7502V38.75Z" fill="#74B0EC"/>
<path fill-rule="evenodd" clip-rule="evenodd" d="M59.4168 31C59.4168 46.6937 46.6939 59.4167 31.0002 59.4167C15.3064 59.4167 2.5835 46.6937 2.5835 31C2.5835 15.3062 15.3064 2.58333 31.0002 2.58333C46.6939 2.58333 59.4168 15.3062 59.4168 31ZM54.2502 31C54.2502 34.0532 53.6488 37.0766 52.4804 39.8974C51.3119 42.7182 49.5993 45.2813 47.4404 47.4402C45.2814 49.5992 42.7184 51.3118 39.8975 52.4802C37.0767 53.6486 34.0534 54.25 31.0002 54.25C27.9469 54.25 24.9236 53.6486 22.1028 52.4802C19.282 51.3118 16.7189 49.5992 14.5599 47.4402C12.401 45.2813 10.6884 42.7182 9.51996 39.8974C8.35154 37.0766 7.75016 34.0532 7.75016 31C7.75016 24.8337 10.1997 18.92 14.5599 14.5598C18.9201 10.1995 24.8339 7.75 31.0002 7.75C37.1664 7.75 43.0802 10.1995 47.4404 14.5598C51.8006 18.92 54.2502 24.8337 54.2502 31Z" fill="#74B0EC"/>
</svg>
