<svg width="62" height="62" viewBox="0 0 62 62" fill="none" xmlns="http://www.w3.org/2000/svg">
<path fill-rule="evenodd" clip-rule="evenodd" d="M59.4168 31C59.4168 46.6937 46.6939 59.4167 31.0002 59.4167C15.3064 59.4167 2.5835 46.6937 2.5835 31C2.5835 15.3062 15.3064 2.58333 31.0002 2.58333C46.6939 2.58333 59.4168 15.3062 59.4168 31ZM54.2502 31C54.2502 34.0532 53.6488 37.0766 52.4804 39.8974C51.3119 42.7182 49.5993 45.2813 47.4404 47.4402C45.2814 49.5992 42.7184 51.3118 39.8975 52.4802C37.0767 53.6486 34.0534 54.25 31.0002 54.25C27.9469 54.25 24.9236 53.6486 22.1028 52.4802C19.282 51.3118 16.7189 49.5992 14.5599 47.4402C12.401 45.2813 10.6884 42.7182 9.51996 39.8974C8.35154 37.0766 7.75016 34.0532 7.75016 31C7.75016 24.8337 10.1997 18.92 14.5599 14.5598C18.9201 10.1995 24.8339 7.75 31.0002 7.75C37.1664 7.75 43.0802 10.1995 47.4404 14.5598C51.8006 18.92 54.2502 24.8337 54.2502 31Z" fill="#74B0EC"/>
<path d="M43 31C43.0007 31.2873 42.9294 31.5699 42.7932 31.8202C42.657 32.0706 42.4605 32.2803 42.2227 32.4289L27.4873 41.7509C27.2388 41.9082 26.9543 41.9941 26.663 41.9997C26.3718 42.0053 26.0844 41.9304 25.8305 41.7827C25.579 41.6372 25.3695 41.4252 25.2235 41.1683C25.0776 40.9114 25.0004 40.6189 25 40.321V21.679C25.0004 21.3811 25.0776 21.0886 25.2235 20.8317C25.3695 20.5748 25.579 20.3628 25.8305 20.2173C26.0844 20.0696 26.3718 19.9947 26.663 20.0003C26.9543 20.0059 27.2388 20.0918 27.4873 20.2491L42.2227 29.5711C42.4605 29.7197 42.657 29.9294 42.7932 30.1798C42.9294 30.4301 43.0007 30.7127 43 31Z" fill="#74B0EC"/>
</svg>
