<svg width="121" height="66" viewBox="0 0 121 66" fill="none" xmlns="http://www.w3.org/2000/svg">
<path d="M72.0372 53.5318C60.4978 48.1762 54.7143 41.224 53.265 38.4174C51.8617 45.48 50.6838 60.1986 57.1989 62.5728C63.7139 64.9469 76.6214 63.9761 82.1197 63.1939C79.5247 62.0897 74.2227 56.2924 72.0372 53.5318Z" fill="#660435"/>
<path d="M119.87 24.7752C118.104 23.7262 113.613 24.062 111.589 24.3611C109.601 24.5604 107.77 32.4039 107.103 36.3007C112.095 32.896 121.637 25.8242 119.87 24.7752Z" fill="#74B0EC"/>
<path d="M59.8965 54.0374C63.0942 53.8074 70.4972 55.2383 74.5277 62.8024C70.0647 61.4451 60.8903 57.7919 59.8965 54.0374Z" fill="#CD3367"/>
<ellipse cx="69.5585" cy="50.8401" rx="3.17471" ry="3.03668" fill="white"/>
<ellipse cx="79.0826" cy="52.7726" rx="3.45077" ry="3.03668" fill="white"/>
<path d="M19.8923 39.8207C20.8861 41.4218 24.4013 45.871 26.0347 47.8955L39.6997 51.4153L45.9801 42.7884L60.3353 36.715L86.078 42.7884C92.5424 38.7395 109.698 30.6463 110.302 24.2922C110.83 18.748 110.553 11.2943 109.38 7.22243C84.5899 1.53556 63.1419 4.41581 55.5732 6.90036C46.8773 -1.38149 40.4588 0.0678357 39.6997 0.688974C38.9405 1.31011 39.3546 2.69042 40.4588 6.00316C41.3422 8.65335 41.5631 10.9723 41.5631 11.8004C32.6187 14.7267 21.4566 23.464 16.9936 27.4669C10.9203 20.0132 -2.19266 14.6991 1.05107 19.6682C4.3086 23.8091 9.49395 32.0679 11.6794 35.6797C13.2107 38.2103 12.0094 39.8207 11.4724 41.339C10.1381 45.1118 8.46333 52.0502 12.4386 49.6208C16.4139 47.1915 19.0641 42.0752 19.8923 39.8207Z" fill="#74B0EC"/>
<path fill-rule="evenodd" clip-rule="evenodd" d="M41.7341 1.46156C44.1428 2.03831 46.9558 2.71184 51.6838 7.22246C52.9684 7.07533 54.2118 6.92821 55.4301 6.78405C55.4448 6.78231 55.4595 6.78057 55.4742 6.77883C46.899 -1.31478 40.5663 0.0528047 39.7441 0.676969L39.842 0.942061C40.463 1.15723 41.0838 1.30587 41.7341 1.46156ZM109.409 7.22246C85.3475 1.7027 64.4345 4.25396 56.3053 6.68056C69.5312 5.11871 80.2097 3.9987 109.409 7.22246Z" fill="#8ED1FE"/>
<path d="M94.2656 50.9782C72.1807 59.4809 58.2856 46.8373 54.0987 39.4526C58.7365 60.6541 74.7113 64.1141 82.1189 63.1939C51.1448 71.034 31.8067 56.1083 25.9404 47.8035C31.9034 49.2942 35.5566 47.8725 36.7068 46.8373C46.3 39.4526 44.2985 38.2794 49.0606 33.3793C52.8702 29.4592 60.5401 31.7459 63.8989 33.3793C78.9166 40.4464 88.6524 38.0723 91.6431 36.0018C109.201 27.7752 110.737 13.3878 109.311 7.22244C113.498 18.2649 116.351 42.4755 94.2656 50.9782Z" fill="#C5E5F0"/>
<path fill-rule="evenodd" clip-rule="evenodd" d="M85.2933 27.651C92.4591 27.651 98.2682 21.842 98.2682 14.6762C98.2682 7.51032 92.4591 1.70126 85.2933 1.70126C79.7816 1.70126 75.0725 5.13802 73.1922 9.98551C70.8677 6.48973 66.893 4.18582 62.3802 4.18582C55.2143 4.18582 49.4053 9.99487 49.4053 17.1607C49.4053 24.3265 55.2143 30.1356 62.3802 30.1356C67.8919 30.1356 72.6009 26.6988 74.4812 21.8514C76.8058 25.3471 80.7805 27.651 85.2933 27.651Z" fill="white"/>
<ellipse cx="63.1402" cy="16.9536" rx="7.66071" ry="8.0748" fill="black"/>
<ellipse cx="84.397" cy="14.8832" rx="7.66071" ry="8.0748" fill="black"/>
<path d="M29.752 37.9793C29.4069 37.9102 20.5732 29.5595 22.2983 25.9706C22.7161 25.1015 33.7319 29.3753 38.586 32.8721" stroke="#B6CFE5" stroke-width="1.57986"/>
<path d="M39.2185 22.6819C38.4133 24.4533 37.2447 28.7967 39.0115 31.999C38.7814 29.6295 38.5008 24.4487 39.2185 22.6819Z" fill="#265696"/>
<path d="M42.7644 22.2678C41.9592 24.0392 40.7906 28.3826 42.5574 31.5849C42.3273 29.2154 42.0467 24.0346 42.7644 22.2678Z" fill="#265696"/>
<path d="M46.3533 22.2678C45.5481 24.0392 44.3795 28.3826 46.1462 31.5849C45.9162 29.2154 45.6355 24.0346 46.3533 22.2678Z" fill="#265696"/>
<path fill-rule="evenodd" clip-rule="evenodd" d="M0.542969 18.3825L0.680886 18.5118C1.43878 18.9612 2.15224 19.3293 2.89553 19.7127C5.73957 21.18 9.02048 22.8727 16.8995 30.2046C20.0052 26.5697 29.971 17.7113 41.9521 13.6808L41.5442 11.7775C32.603 14.7099 21.4535 23.4377 16.9936 27.4378C11.5734 20.7857 0.546368 15.8377 0.542969 18.3825Z" fill="#8ED1FE"/>
</svg>
