<svg width="117" height="127" viewBox="0 0 117 127" fill="none" xmlns="http://www.w3.org/2000/svg">
<path d="M19.108 59.0113C16.4806 60.888 7.89422 63.0906 5.0791 63.5598L6.44 67.926L23.7999 66.5183C23.3307 63.234 21.7355 57.1345 19.108 59.0113Z" fill="#74B0EC"/>
<path d="M21.327 62.8547C15.6968 61.7286 12.0997 48.6227 11.0049 42.2104L17.7812 38.886C24.5063 36.2273 38.8947 31.8482 42.6481 35.6017C47.34 40.2936 28.3648 64.2622 21.327 62.8547Z" fill="#660435"/>
<path d="M25.2501 66.5311C19.6117 65.7543 16.0094 56.7133 14.9131 52.2899L21.6993 49.9966C28.434 48.1625 42.8432 45.1417 46.6021 47.731C51.3008 50.9676 32.2981 67.5021 25.2501 66.5311Z" fill="#CD3367"/>
<mask id="mask0_2317_1974" style="mask-type:alpha" maskUnits="userSpaceOnUse" x="11" y="34" width="33" height="29">
<path d="M21.327 62.8547C15.6968 61.7286 12.0997 48.6227 11.0049 42.2104L17.7812 38.886C24.5063 36.2273 38.8947 31.8482 42.6481 35.6017C47.34 40.2936 28.3648 64.2622 21.327 62.8547Z" fill="white"/>
</mask>
<g mask="url(#mask0_2317_1974)">
<rect x="7.81543" y="37.8787" width="7.06025" height="13.6932" rx="2.6331" transform="rotate(-20.2131 7.81543 37.8787)" fill="white"/>
<rect x="15.709" y="34.854" width="7.06025" height="13.6932" rx="2.6331" transform="rotate(-13.8681 15.709 34.854)" fill="white"/>
<rect x="29.666" y="30.2054" width="7.06025" height="13.6932" rx="2.6331" transform="rotate(-20.2131 29.666 30.2054)" fill="white"/>
<rect x="13.2373" y="55.1158" width="7.06025" height="13.6932" rx="2.6331" transform="rotate(-20.2131 13.2373 55.1158)" fill="white"/>
<rect x="20.7373" y="50.1607" width="7.06025" height="13.6932" rx="2.6331" transform="rotate(-16.0375 20.7373 50.1607)" fill="white"/>
<rect x="28.1855" y="47.1158" width="7.06025" height="13.6932" rx="2.6331" transform="rotate(-12.9402 28.1855 47.1158)" fill="white"/>
<rect x="34.9111" y="45.3162" width="7.06025" height="13.6932" rx="2.6331" transform="rotate(-20.2131 34.9111 45.3162)" fill="white"/>
<rect x="36.6982" y="26.3071" width="7.06025" height="13.6932" rx="2.6331" transform="rotate(-20.2131 36.6982 26.3071)" fill="white"/>
<rect x="41.9434" y="40.3547" width="7.06025" height="13.6932" rx="2.6331" transform="rotate(-20.2131 41.9434 40.3547)" fill="white"/>
</g>
<path d="M1.37228 55.5177C-2.00587 67.1535 4.09444 71.2103 7.37875 71.2103C4.75128 67.457 5.97114 60.5759 7.37872 56.6658C7.8479 55.7272 12.5398 53.8501 12.6328 49.4182C12.7999 41.4576 1.84149 54.1096 1.37228 55.5177Z" fill="#74B0EC"/>
<path d="M89.486 18.6516C81.5098 13.9597 59.9272 19.5899 59.458 19.5899C64.7129 28.2229 79.7894 33.1964 86.6708 34.604C90.2679 30.8505 95.8669 22.4051 89.486 18.6516Z" fill="#74B0EC"/>
<path d="M6.90958 3.64724C0.360416 2.95779 0.886358 18.0627 2.29392 25.726C4.17065 31.7315 20.2794 31.3563 28.0992 30.418C42.644 28.6728 52.1667 25.257 53.9045 27.6029C63.2882 40.2709 57.1888 46.8395 59.0655 51.5314C60.9423 56.2233 63.2882 56.6925 70.326 65.1378C75.9562 71.8941 74.1596 86.3806 72.5956 92.7928C74.4724 94.2004 76.269 96.5733 76.4254 97.9809C67.5109 95.1658 48.3442 93.3101 54.8428 99.3884C61.3352 105.461 74.368 109.214 74.5487 108.772C70.0445 119.657 71.7336 125.663 73.6103 126.132C77.3638 127.071 84.0888 109.241 84.8708 101.734C107.392 82.2162 103.093 59.4805 99.8848 50.1238C98.8701 45.8741 103.169 43.2737 105.046 47.7779C106.923 52.2821 111.069 56.8336 113.022 56.2233C120.529 53.8773 113.415 40.2439 107.861 37.925C103.577 36.1362 97.4625 39.7747 93.7853 37.925C54.8428 8.83542 15.8241 4.5857 6.90958 3.64724Z" fill="#74B0EC"/>
<path d="M1.74875 21.4765C5.34585 25.23 17.6758 33.3 31.5637 28.0451C45.4516 22.7903 53.3027 25.8556 55.4922 28.0451C57.6818 29.4527 61.4978 35.7398 59.2457 49.6277C58.7765 50.4097 60.6533 54.5073 71.9138 64.6417C74.7289 66.6749 79.3515 75.5268 72.5952 92.7929C71.6568 89.3522 65.6267 81.9078 51.7387 81.5324C37.8508 81.1571 30.6253 74.4946 28.7486 71.2103C26.4027 72.1487 17.2319 75.433 5.03306 70.7411C4.10744 69.8155 3.88761 62.4073 7.48431 56.4421C7.53353 56.3346 7.58396 56.2516 7.63518 56.1964C7.58416 56.278 7.53388 56.3599 7.48431 56.4421C6.75222 58.0415 6.29388 65.0568 7.63518 66.5185C9.06664 68.0784 17.0189 67.6445 20.7724 64.6417C20.9288 64.0161 19.1087 62.2958 19.1087 61.8266C19.1087 59.7283 40.2221 55.7272 41.6296 36.4905L41.4166 36.0213C35.9428 39.3056 21.3354 45.3112 6.69681 43.0591C5.13285 40.244 0.622706 30.4849 1.74875 21.4765Z" fill="#BBE5FE"/>
<path fill-rule="evenodd" clip-rule="evenodd" d="M4.1875 4.59487C20.1695 7.89026 60.0076 18.7729 93.7576 37.8979C93.7644 37.8642 93.7713 37.8303 93.7782 37.7963C54.8932 8.82175 16.0806 4.2824 7.15068 3.67399C5.94245 3.59167 4.96727 3.93308 4.1875 4.59487Z" fill="#BBE5FE"/>
<ellipse cx="29.4308" cy="8.80863" rx="7.50699" ry="7.97617" fill="#FEFFFA"/>
<ellipse cx="43.506" cy="8.80834" rx="7.50699" ry="7.97617" fill="#FEFFFA"/>
<circle cx="28.0234" cy="10.6852" r="5.16105" fill="black"/>
<circle cx="42.0986" cy="10.6852" r="5.16105" fill="black"/>
<path d="M69.7804 28.9834C69.4676 32.2677 67.5283 39.3993 62.2734 41.6514C64.3066 38.9927 68.6544 32.7369 69.7804 28.9834Z" fill="#469BD1"/>
<path d="M74.4718 29.9218C74.159 33.3278 72.2197 40.7235 66.9648 43.059C68.998 40.3018 73.3458 33.8143 74.4718 29.9218Z" fill="#469BD1"/>
<path d="M79.1642 30.8602C78.8514 34.2661 76.9121 41.6619 71.6572 43.9974C73.6904 41.2402 78.0382 34.7527 79.1642 30.8602Z" fill="#469BD1"/>
<path d="M86.6716 17.7229C84.0441 17.3476 73.5344 17.2538 64.1506 20.0684L61.8047 19.13C75.8803 14.9079 85.264 16.3155 86.6716 17.7229Z" fill="#BBE5FE"/>
<path fill-rule="evenodd" clip-rule="evenodd" d="M100.27 46.8494C99.1744 46.5681 97.505 47.7714 99.3636 54.8342C101.71 63.7488 99.8328 85.3312 85.7572 99.4068C85.6537 99.5104 85.5071 99.6158 85.3368 99.7384C84.6929 100.202 83.7081 100.91 83.4113 102.691C83.2153 103.867 82.0373 107.334 80.7659 111.076C78.9931 116.294 77.0386 122.046 77.3119 122.866C77.326 122.909 77.3932 122.901 77.5092 122.846C80.8427 117.483 84.3442 107.069 84.8952 101.78C107.416 82.2616 103.117 59.5259 99.9091 50.1692C99.5939 48.8489 99.7916 47.6878 100.27 46.8494Z" fill="#BBE5FE"/>
</svg>
