<svg width="117" height="126" viewBox="0 0 117 126" fill="none" xmlns="http://www.w3.org/2000/svg">
<g clip-path="url(#clip0_2317_2015)">
<path d="M101.273 51.5714L105.347 44.2247L73.5488 33.1605L74.7889 41.3923L89.3152 52.2795L101.273 51.5714Z" fill="#660435"/>
<path d="M91.623 61.3638C97.3215 60.7471 100.962 53.5696 102.07 50.0579L95.2118 48.2373C88.4052 46.7812 73.8423 44.383 70.0433 46.4386C65.2945 49.0081 84.4998 62.1346 91.623 61.3638Z" fill="#CD3367"/>
<path d="M110.184 67.5215L92.8232 66.123C92.9472 65.2733 93.1421 64.2111 93.4256 63.1666C93.7799 61.8566 94.2404 60.5289 94.8073 59.5907C95.5336 58.4223 96.4371 57.8381 97.5177 58.617C97.8189 58.8295 98.1909 59.0419 98.5806 59.2543C101.468 60.7591 106.428 61.8743 108.997 62.3169C109.086 62.3346 109.174 62.3523 109.245 62.3523L110.184 67.5215Z" fill="#74B0EC"/>
<path d="M111.725 70.177C110.857 70.6195 109.989 70.8143 109.262 70.8143C111.884 67.0613 110.662 60.1926 109.262 56.2803C109.209 56.1918 109.121 56.0856 109.014 55.9793C107.987 55.0234 104.55 53.2531 104.072 49.7303C104.036 49.5001 104.019 49.27 104.019 49.0399C103.948 45.8888 105.649 45.9773 107.739 47.3227C110.91 49.3585 115.002 54.2976 115.285 55.1296C117.89 64.1757 114.772 68.6368 111.725 70.177Z" fill="#74B0EC"/>
<path fill-rule="evenodd" clip-rule="evenodd" d="M109.103 41.1267C109.014 41.6578 108.908 42.2243 108.784 42.8439C108.5 44.207 108.146 45.7294 107.703 47.3227C107.495 48.235 106.961 49.3562 106.587 49.624C106.213 49.8919 104.975 49.8719 104.054 49.7303C101.202 49.2877 98.4737 48.6858 95.905 47.9423C93.4957 47.2342 91.2105 46.3844 89.1201 45.4285C86.392 44.1716 83.965 42.7377 81.9101 41.1267C80.2803 39.8521 78.8985 38.489 77.7825 37.0374C77.4459 36.6125 77.1448 36.1699 76.8613 35.7274C76.7905 35.9752 76.755 36.2231 76.7373 36.5063C76.755 35.6743 76.9853 35.0016 77.4636 34.5236C81.2192 30.7706 95.6038 35.1432 102.318 37.7986L109.103 41.1267Z" fill="white"/>
<path d="M81.2196 37.7986L81.7865 38.2057C82.0168 38.3828 82.0877 38.7014 81.9105 38.9493L81.5031 39.5158C81.3259 39.7459 81.007 39.8167 80.759 39.6397L80.1921 39.2325C79.9618 39.0555 79.891 38.7368 80.0681 38.489L80.4756 37.9225C80.635 37.6924 80.9716 37.6393 81.2196 37.7986Z" fill="#C4C4C4"/>
<path d="M86.3039 40.3832L87.2605 40.8611C87.5262 40.9851 87.6325 41.3037 87.5085 41.5693L87.0302 42.5252C86.9062 42.7907 86.5873 42.897 86.3216 42.773L85.365 42.2951C85.0993 42.1712 84.993 41.8525 85.117 41.587L85.5953 40.631C85.7193 40.3655 86.0382 40.2593 86.3039 40.3832Z" fill="#C4C4C4"/>
<path d="M93.1056 42.4367L94.6114 42.9147C94.8949 43.0032 95.0543 43.3041 94.9657 43.5874L94.4874 45.0921C94.3988 45.3754 94.0977 45.5347 93.8142 45.4462L92.3085 44.9682C92.025 44.8797 91.8656 44.5787 91.9542 44.2955L92.4325 42.7908C92.521 42.5075 92.8222 42.3482 93.1056 42.4367Z" fill="#C4C4C4"/>
<path d="M101.468 43.7821L103.257 44.0831C103.541 44.1362 103.736 44.4017 103.7 44.685L103.399 46.473C103.346 46.7562 103.08 46.9509 102.797 46.9155L101.008 46.6146C100.724 46.5615 100.529 46.2959 100.565 46.0127L100.866 44.2247C100.901 43.9237 101.185 43.729 101.468 43.7821Z" fill="#C4C4C4"/>
<path d="M78.332 36.2585C81.5562 39.799 91.9195 46.6854 108.359 44.6673" stroke="#C4C4C4" stroke-width="1.05324"/>
<path fill-rule="evenodd" clip-rule="evenodd" d="M101.627 51.3058C102.425 52.1025 99.9976 57.0592 98.5804 59.2544C98.1552 59.8917 97.7301 60.4936 97.2695 60.9893C96.2774 62.1045 95.1791 62.8657 94.0099 63.0959C93.8327 63.1313 93.6379 63.149 93.4253 63.149C89.5457 63.2021 82.8317 57.0238 77.9423 50.4384C77.4109 49.7303 76.9148 49.0222 76.4365 48.3141C76.2594 48.0485 76.0822 47.783 75.9051 47.5174C73.1593 43.2688 71.4586 39.2148 72.0786 36.9489C73.0707 38.5244 74.3816 40.0115 75.9582 41.3923C77.3223 42.5784 78.8812 43.6936 80.5996 44.7204C82.8317 46.0481 85.3472 47.1988 88.1108 48.1901C90.2897 48.9691 92.6281 49.6418 95.0905 50.1906C97.3403 50.6862 100.83 50.5092 101.627 51.3058Z" fill="white"/>
<path d="M95.1082 50.1905C94.6476 51.4297 94.1516 52.6689 93.6379 53.8373C92.947 55.3774 92.2207 56.8114 91.4589 57.9266C91.2995 58.1745 91.14 58.4046 90.9629 58.6171" stroke="#E1E6EA" stroke-width="0.421296"/>
<path d="M95.9053 47.9423C96.3127 46.7739 96.6493 45.6586 96.9505 44.685C97.163 43.9946 97.3402 43.375 97.4819 42.8439C97.4996 42.7908 97.5173 42.7377 97.5173 42.7023" stroke="#E1E6EA" stroke-width="0.421296"/>
<path d="M84.3545 55.7315C84.6911 55.289 85.0277 54.7579 85.3643 54.1914C85.754 53.5187 86.1437 52.7575 86.5334 51.9608C87.1003 50.7748 87.6318 49.5002 88.1278 48.1901" stroke="#E1E6EA" stroke-width="0.315972"/>
<path d="M89.1377 45.4285C89.4211 44.6141 89.6691 43.8352 89.9172 43.074C90.0943 42.5429 90.236 42.0295 90.3777 41.5516C90.5903 40.8258 90.7852 40.1707 90.9269 39.622" stroke="#E1E6EA" stroke-width="0.315972"/>
<path d="M76.8789 52.067C77.2332 51.6068 77.5875 51.058 77.9418 50.4738C78.3315 49.8011 78.7213 49.0576 79.111 48.2609C79.1464 48.1901 79.1819 48.1193 79.2173 48.0308C79.7133 46.9864 80.1739 45.8711 80.6168 44.7381" stroke="#E1E6EA" stroke-width="0.210648"/>
<path d="M81.9277 41.1267C82.1049 40.5956 82.282 40.0823 82.4415 39.5866C82.4946 39.4273 82.5478 39.2856 82.5832 39.1263C82.9552 37.9756 83.2387 36.9312 83.469 36.1168" stroke="#E1E6EA" stroke-width="0.210648"/>
<path d="M73.7256 43.4281C76.9497 46.9687 83.2031 53.4302 100.83 54.7579" stroke="#C4C4C4" stroke-width="1.05324"/>
<path d="M77.1444 46.65L77.7113 47.0572C77.9416 47.2342 78.0125 47.5529 77.8353 47.8007L77.4279 48.3672C77.2507 48.5973 76.9318 48.6681 76.6838 48.4911L76.1169 48.0839C75.8866 47.9069 75.8158 47.5883 75.9929 47.3404L76.4004 46.7739C76.5598 46.5438 76.8964 46.4907 77.1444 46.65Z" fill="#C4C4C4"/>
<path d="M82.46 48.7035L83.8772 49.4116C84.1429 49.5355 84.2492 49.8542 84.1252 50.1197L83.4166 51.5359C83.2926 51.8015 82.9737 51.9077 82.708 51.7838L81.2908 51.0757C81.0251 50.9518 80.9188 50.6331 81.0428 50.3676L81.7514 48.9513C81.8754 48.6858 82.1942 48.5796 82.46 48.7035Z" fill="#C4C4C4"/>
<path d="M89.0324 51.2881L90.5382 51.7661C90.8216 51.8546 90.9811 52.1556 90.8925 52.4388L90.4142 53.9435C90.3256 54.2268 90.0244 54.3861 89.741 54.2976L88.2352 53.8196C87.9518 53.7311 87.7924 53.4302 87.8809 53.1469L88.3592 51.6422C88.4478 51.3589 88.749 51.1996 89.0324 51.2881Z" fill="#C4C4C4"/>
<path d="M96.5072 52.9876L98.2964 53.2886C98.5799 53.3417 98.7747 53.6072 98.7393 53.8904L98.4382 55.6784C98.385 55.9617 98.1193 56.1564 97.8358 56.121L96.0466 55.8201C95.7632 55.7669 95.5683 55.5014 95.6038 55.2182L95.9049 53.4302C95.9404 53.1292 96.2238 52.9345 96.5072 52.9876Z" fill="#C4C4C4"/>
<path d="M27.1709 18.3078C35.1426 13.6166 56.7196 19.2461 57.1979 19.2461C51.9365 27.8673 36.861 32.8241 29.9698 34.2404C26.3737 30.4874 20.7757 22.0431 27.1709 18.3078Z" fill="#74B0EC"/>
<path d="M109.723 3.31361C116.278 2.6232 115.746 17.7237 114.329 25.3713C112.451 31.3725 96.3481 31.0007 88.5358 30.0625C73.9917 28.3276 64.4787 24.911 62.7426 27.2478C53.3537 39.9052 59.4654 46.473 57.5876 51.1465C55.7098 55.8377 53.3714 56.298 46.3385 64.7422C40.6874 71.487 42.4766 85.9679 44.0533 92.3763C42.1755 93.7748 40.3862 96.147 40.2268 97.5632C49.1375 94.7484 68.3052 92.8897 61.8038 98.9617C55.32 105.034 42.2818 108.787 42.1046 108.344C46.6042 119.214 44.9213 125.215 43.0435 125.693C39.2879 126.631 32.5739 108.822 31.7944 101.316C9.26089 81.8077 13.5656 59.0951 16.7721 49.748C17.7818 45.4993 13.4948 42.897 11.617 47.4112C9.73919 51.9254 5.59387 56.4573 3.64521 55.8554C-3.86597 53.5187 3.25548 39.8875 8.80029 37.5685C13.0873 35.7805 19.199 39.4096 22.8661 37.5685C61.8038 8.50052 100.812 4.25185 109.723 3.31361Z" fill="#74B0EC"/>
<path d="M108.997 55.8024C112.575 61.5204 112.54 68.7077 111.725 70.1593C111.689 70.2301 111.636 70.2832 111.601 70.3363C99.4128 75.0276 90.2364 71.7349 87.8981 70.7966C86.0203 74.0716 78.7925 80.7279 64.9039 81.1173C51.0153 81.4891 44.9922 88.9243 44.0533 92.3586C37.3038 75.1161 41.9275 66.2647 44.7264 64.2289C55.9755 54.1029 57.8533 50.0136 57.3927 49.2346C55.1429 35.3557 58.9516 29.0889 61.1483 27.6727C63.345 25.4952 71.1927 22.4326 85.0636 27.6727C98.9523 32.9304 111.282 24.8579 114.878 21.1049C114.878 21.1757 114.896 21.2465 114.896 21.3174C115.923 30.2573 111.477 39.8699 109.918 42.6669C109.528 42.72 109.156 42.7731 108.766 42.8262C104.922 43.3042 101.096 43.2334 97.4642 42.8262C94.9841 42.543 92.5925 42.1004 90.3427 41.5516C88.9964 41.233 87.7209 40.8612 86.4808 40.4895C86.3214 40.4364 86.162 40.3832 86.0025 40.3478C84.7802 39.9584 83.6287 39.5512 82.5481 39.1263C82.3355 39.0555 82.1407 38.967 81.9281 38.8962C81.4852 38.7192 81.06 38.5422 80.6526 38.3651C80.5109 38.312 80.3869 38.2589 80.2629 38.2058C79.3594 37.8163 78.5268 37.4269 77.765 37.0551C77.393 36.8781 77.0564 36.7011 76.7198 36.524C76.153 36.2231 75.6392 35.9398 75.1964 35.6743L74.9838 36.1346C75.1255 38.0465 75.4621 39.7991 75.9404 41.41C76.7021 43.9238 77.8359 46.1189 79.1822 48.0308C79.324 48.2256 79.4657 48.4203 79.6074 48.615C80.068 49.2169 80.5463 49.8011 81.0423 50.3499C81.4321 50.7748 81.8218 51.1996 82.2292 51.5891C83.2213 52.5628 84.2665 53.4302 85.3294 54.2091C87.4197 55.767 89.5456 56.9708 91.4056 57.9444C92.6634 58.5994 93.8149 59.1482 94.7715 59.6085C95.9407 60.175 96.8087 60.6352 97.2162 61.007C97.3756 61.1663 97.4642 61.3079 97.4642 61.4496C97.4642 61.9098 95.6395 63.627 95.799 64.2643C99.5546 67.2738 106.127 66.7604 108.926 66.1408V55.8024H108.997Z" fill="#BBE5FE"/>
<path fill-rule="evenodd" clip-rule="evenodd" d="M112.434 4.25183C96.4546 7.54455 56.6311 18.4141 22.8839 37.5154C22.8839 37.4799 22.8662 37.4445 22.8662 37.4091C61.7508 8.4828 100.547 3.95088 109.475 3.33129C110.68 3.26048 111.654 3.59683 112.434 4.25183Z" fill="#BBE5FE"/>
<path d="M87.2075 16.4314C91.3558 16.4314 94.7187 12.8647 94.7187 8.4651C94.7187 4.06546 91.3558 0.498852 87.2075 0.498852C83.0592 0.498852 79.6963 4.06546 79.6963 8.4651C79.6963 12.8647 83.0592 16.4314 87.2075 16.4314Z" fill="#FEFFFA"/>
<path d="M73.1235 16.4314C77.2718 16.4314 80.6347 12.8647 80.6347 8.4651C80.6347 4.06546 77.2718 0.498852 73.1235 0.498852C68.9752 0.498852 65.6123 4.06546 65.6123 8.4651C65.6123 12.8647 68.9752 16.4314 73.1235 16.4314Z" fill="#FEFFFA"/>
<path d="M88.6072 15.4931C91.4543 15.4931 93.7623 13.1867 93.7623 10.3416C93.7623 7.49648 91.4543 5.19007 88.6072 5.19007C85.7602 5.19007 83.4521 7.49648 83.4521 10.3416C83.4521 13.1867 85.7602 15.4931 88.6072 15.4931Z" fill="black"/>
<path d="M74.5408 15.4931C77.3879 15.4931 79.6959 13.1867 79.6959 10.3416C79.6959 7.49648 77.3879 5.19007 74.5408 5.19007C71.6938 5.19007 69.3857 7.49648 69.3857 10.3416C69.3857 13.1867 71.6938 15.4931 74.5408 15.4931Z" fill="black"/>
<path d="M46.8701 28.6286C47.189 31.9036 49.1199 39.0378 54.3813 41.286C52.3441 38.6306 47.9862 32.3815 46.8701 28.6286Z" fill="#469BD1"/>
<path d="M42.1748 29.5668C42.4937 32.9657 44.4246 40.3655 49.686 42.6846C47.6488 39.9229 43.2909 33.4437 42.1748 29.5668Z" fill="#469BD1"/>
<path d="M37.4805 30.505C37.7993 33.904 39.7303 41.3037 44.9917 43.6228C42.9544 40.8612 38.6142 34.3819 37.4805 30.505Z" fill="#469BD1"/>
<path d="M29.9697 17.3696C32.5916 16.9978 43.0966 16.9093 52.4856 19.7064L54.824 18.7681C40.7582 14.5549 31.3869 15.9711 29.9697 17.3696Z" fill="#BBE5FE"/>
<path fill-rule="evenodd" clip-rule="evenodd" d="M16.3817 46.473C17.48 46.1897 19.1453 47.3935 17.2852 54.4569C14.9468 63.3614 16.8246 84.9234 30.8903 98.9794C30.9966 99.0856 31.1383 99.1918 31.3155 99.3157C31.9532 99.776 32.9453 100.484 33.2464 102.272C33.4413 103.44 34.6282 106.91 35.886 110.646C37.6575 115.85 39.6061 121.604 39.3404 122.418C39.3227 122.453 39.2518 122.453 39.1456 122.4C35.8151 117.036 32.3075 106.645 31.7584 101.352C9.24253 81.8431 13.5296 59.1304 16.736 49.7834C17.0549 48.4734 16.86 47.305 16.3817 46.473Z" fill="#BBE5FE"/>
</g>
<defs>
<clipPath id="clip0_2317_2015">
<rect width="115.856" height="125.336" fill="white" transform="translate(0.385742 0.498856)"/>
</clipPath>
</defs>
</svg>
