<svg width="25" height="25" viewBox="0 0 25 25" fill="none" xmlns="http://www.w3.org/2000/svg">
<path d="M10.3257 2.31482V4.35186H11.2459C10.983 6.175 9.31446 7.91667 8.30322 9.44445V14.3028C8.61837 14.5899 8.87026 14.9404 9.04266 15.3316C9.21506 15.7228 9.30413 16.1461 9.30413 16.5741C9.30413 17.0021 9.21506 17.4254 9.04266 17.8166C8.87026 18.2078 8.61837 18.5582 8.30322 18.8454V20.6482C8.30322 21.1884 8.5163 21.7065 8.89559 22.0886C9.27488 22.4706 9.7893 22.6852 10.3257 22.6852H14.3706C15.4931 22.6852 16.3931 21.7787 16.3931 20.6482V18.8454C16.078 18.5582 15.8261 18.2078 15.6537 17.8166C15.4813 17.4254 15.3922 17.0021 15.3922 16.5741C15.3922 16.1461 15.4813 15.7228 15.6537 15.3316C15.8261 14.9404 16.078 14.5899 16.3931 14.3028V9.44445C15.3819 7.91667 13.7133 6.175 13.4504 4.35186H14.3706V2.31482H10.3257ZM12.3482 6.89815C12.5909 7.40741 13.9055 8.93519 14.2695 9.35278L14.3706 9.44445V13.5185C13.7133 14.4046 13.3594 15.4741 13.3594 16.5741C13.3594 17.6741 13.7133 18.7435 14.3706 19.6296V20.6482H10.3257V19.6296C10.983 18.7435 11.3369 17.6741 11.3369 16.5741C11.3369 15.4741 10.983 14.4046 10.3257 13.5185V9.44445L10.4268 9.35278C10.7909 8.93519 12.1055 7.40741 12.3482 6.89815Z" fill="white"/>
</svg>
