<svg width="26" height="26" viewBox="0 0 26 26" fill="none" xmlns="http://www.w3.org/2000/svg">
<path d="M16.25 26H9.75C9.17554 25.9994 8.62477 25.771 8.21857 25.3648C7.81236 24.9586 7.58391 24.4078 7.58333 23.8333V18.4167H2.16667C1.59221 18.4161 1.04144 18.1876 0.635236 17.7814C0.229031 17.3752 0.0005736 16.8245 0 16.25V9.75C0.0005736 9.17554 0.229031 8.62477 0.635236 8.21857C1.04144 7.81236 1.59221 7.58391 2.16667 7.58333H7.58333V2.16667C7.58391 1.59221 7.81236 1.04144 8.21857 0.635236C8.62477 0.229031 9.17554 0.0005736 9.75 0H16.25C16.8245 0.0005736 17.3752 0.229031 17.7814 0.635236C18.1876 1.04144 18.4161 1.59221 18.4167 2.16667V7.58333H23.8333C24.4078 7.58391 24.9586 7.81236 25.3648 8.21857C25.771 8.62477 25.9994 9.17554 26 9.75V16.25C25.9991 16.8244 25.7706 17.375 25.3645 17.7811C24.9583 18.1873 24.4077 18.4158 23.8333 18.4167H18.4167V23.8333C18.4158 24.4077 18.1873 24.9583 17.7811 25.3645C17.375 25.7706 16.8244 25.9991 16.25 26ZM2.16667 9.75V16.25H9.75V23.8333H16.25V16.25H23.8333V9.75H16.25V2.16667H9.75V9.75H2.16667Z" fill="white"/>
</svg>
