<svg width="57" height="57" viewBox="0 0 57 57" fill="none" xmlns="http://www.w3.org/2000/svg">
<path d="M36.125 20.875H20.875V36.125H36.125V20.875Z" fill="#74B0EC"/>
<path fill-rule="evenodd" clip-rule="evenodd" d="M56.4586 28.5C56.4586 43.9406 43.9409 56.4583 28.5003 56.4583C13.0597 56.4583 0.541992 43.9406 0.541992 28.5C0.541992 13.0594 13.0597 0.541668 28.5003 0.541668C43.9409 0.541668 56.4586 13.0594 56.4586 28.5ZM51.3753 28.5C51.3753 31.504 50.7836 34.4786 49.6341 37.2539C48.4845 40.0292 46.7995 42.5509 44.6754 44.6751C42.5512 46.7992 40.0295 48.4842 37.2542 49.6337C34.4789 50.7833 31.5043 51.375 28.5003 51.375C25.4963 51.375 22.5218 50.7833 19.7464 49.6337C16.9711 48.4842 14.4494 46.7992 12.3253 44.6751C10.2011 42.5509 8.51616 40.0292 7.36658 37.2539C6.217 34.4786 5.62532 31.504 5.62532 28.5C5.62532 22.4332 8.03536 16.6148 12.3253 12.3249C16.6151 8.03504 22.4335 5.625 28.5003 5.625C34.5671 5.625 40.3855 8.03504 44.6754 12.3249C48.9653 16.6148 51.3753 22.4332 51.3753 28.5Z" fill="#74B0EC"/>
</svg>
