<svg width="23" height="29" viewBox="0 0 23 29" fill="none" xmlns="http://www.w3.org/2000/svg">
<path d="M12.8747 15.8751H15.6247C15.9894 15.8751 16.3391 16.02 16.597 16.2778C16.8549 16.5357 16.9997 16.8854 16.9997 17.2501C16.9997 17.6148 16.8549 17.9645 16.597 18.2224C16.3391 18.4802 15.9894 18.6251 15.6247 18.6251H11.4997C11.319 18.6256 11.14 18.5904 10.9729 18.5215C10.8058 18.4526 10.654 18.3514 10.5262 18.2236C10.3984 18.0958 10.2972 17.944 10.2283 17.7769C10.1594 17.6099 10.1242 17.4308 10.1247 17.2501V11.7501C10.1247 11.3854 10.2696 11.0357 10.5274 10.7778C10.7853 10.52 11.135 10.3751 11.4997 10.3751C11.8644 10.3751 12.2141 10.52 12.472 10.7778C12.7299 11.0357 12.8747 11.3854 12.8747 11.7501V15.8751ZM3.06959 10.184C2.75542 10.0383 2.483 9.81579 2.27745 9.53707C2.0719 9.25836 1.93984 8.93237 1.89345 8.58918C1.84706 8.24598 1.88783 7.89664 2.01201 7.57335C2.13619 7.25006 2.33977 6.96325 2.60398 6.73936C2.86819 6.51548 3.18453 6.36172 3.52381 6.29229C3.86309 6.22285 4.2144 6.23996 4.54532 6.34204C4.87625 6.44412 5.17614 6.62789 5.41735 6.8764C5.65855 7.1249 5.8333 7.43014 5.92547 7.76397C6.42098 7.47257 6.93866 7.22062 7.47372 7.01047C6.87238 6.5926 6.42019 5.99363 6.18304 5.30082C5.9459 4.60801 5.93619 3.85758 6.15533 3.15887C6.37448 2.46016 6.81102 1.84968 7.40135 1.4164C7.99168 0.983125 8.70495 0.749682 9.43722 0.750092H13.5622C14.2945 0.749682 15.0078 0.983125 15.5981 1.4164C16.1884 1.84968 16.625 2.46016 16.8441 3.15887C17.0632 3.85758 17.0535 4.60801 16.8164 5.30082C16.5792 5.99363 16.1271 6.5926 15.5257 7.01047C16.062 7.22222 16.5803 7.47384 17.074 7.76397C17.1661 7.43014 17.3409 7.1249 17.5821 6.8764C17.8233 6.62789 18.1232 6.44412 18.4541 6.34204C18.785 6.23996 19.1363 6.22285 19.4756 6.29229C19.8149 6.36172 20.1312 6.51548 20.3955 6.73936C20.6597 6.96325 20.8633 7.25006 20.9874 7.57335C21.1116 7.89664 21.1524 8.24598 21.106 8.58918C21.0596 8.93237 20.9275 9.25836 20.722 9.53707C20.5164 9.81579 20.244 10.0383 19.9298 10.184C21.2744 11.7884 22.1333 13.7431 22.4056 15.8187C22.6779 17.8942 22.3523 20.0044 21.467 21.9013C20.5817 23.7983 19.1736 25.4032 17.4079 26.5277C15.6422 27.6522 13.5924 28.2495 11.499 28.2495C9.4057 28.2495 7.35582 27.6522 5.59015 26.5277C3.82448 25.4032 2.41633 23.7983 1.53107 21.9013C0.645805 20.0044 0.320196 17.8942 0.592479 15.8187C0.864762 13.7431 1.72363 11.7884 3.06822 10.184H3.06959ZM11.4997 25.5001C12.5831 25.5001 13.6559 25.2867 14.6569 24.8721C15.6578 24.4575 16.5673 23.8498 17.3334 23.0837C18.0994 22.3176 18.7071 21.4082 19.1217 20.4072C19.5363 19.4063 19.7497 18.3335 19.7497 17.2501C19.7497 16.1667 19.5363 15.0939 19.1217 14.093C18.7071 13.092 18.0994 12.1825 17.3334 11.4165C16.5673 10.6504 15.6578 10.0427 14.6569 9.62809C13.6559 9.21348 12.5831 9.00009 11.4997 9.00009C9.31168 9.00009 7.21326 9.86929 5.66609 11.4165C4.11891 12.9636 3.24972 15.0621 3.24972 17.2501C3.24972 19.4381 4.11891 21.5365 5.66609 23.0837C7.21326 24.6309 9.31168 25.5001 11.4997 25.5001ZM9.43722 3.50009C9.25488 3.50009 9.08001 3.57253 8.95108 3.70146C8.82215 3.83039 8.74972 4.00526 8.74972 4.18759C8.74972 4.36993 8.82215 4.5448 8.95108 4.67373C9.08001 4.80266 9.25488 4.87509 9.43722 4.87509H13.5622C13.7446 4.87509 13.9194 4.80266 14.0484 4.67373C14.1773 4.5448 14.2497 4.36993 14.2497 4.18759C14.2497 4.00526 14.1773 3.83039 14.0484 3.70146C13.9194 3.57253 13.7446 3.50009 13.5622 3.50009H9.43722Z" fill="white"/>
</svg>
